<svg xmlns="http://www.w3.org/2000/svg" viewBox="0 0 89.4 89.74"><defs><style>.cls-1{opacity:0.9;}.cls-2{fill:#ee907b;}.cls-3{fill:#ea6852;}.cls-4{fill:#ce0e2d;}.cls-5{fill:#9ac31b;}.cls-6{fill:#1c1c1b;}.cls-7{fill:#c4242e;}</style></defs><g id="레이어_2" data-name="레이어 2"><g id="Layer_1" data-name="Layer 1"><g class="cls-1"><path class="cls-2" d="M42.64,47.37h0c2.16.44,4-.93,5.52-1.69s2.82-1.4,4.53-1a5.48,5.48,0,0,1,3.81,2.81v-.06c0-3.93-2.54-6.78-6-6.78-1.81,0-3.06,1-4.39,2s-3,2.85-5.26,2.85h0a4.38,4.38,0,0,1-1.27-.19A5.56,5.56,0,0,0,42.64,47.37Z"/><path class="cls-3" d="M41.79,49.63l0,0c2.15,1.13,4.51.25,6.36-.08s3.43-.61,5.13.28A6.25,6.25,0,0,1,55.66,52a11.86,11.86,0,0,0,.88-4.52,5.48,5.48,0,0,0-3.81-2.81c-1.71-.35-3.08.33-4.53,1s-3.36,2.13-5.52,1.69h0a5.56,5.56,0,0,1-3.1-2.09,5.6,5.6,0,0,1-1.07-.44C39.16,46.5,39.84,48.6,41.79,49.63Z"/><path class="cls-4" d="M53.32,49.85c-1.7-.89-3.36-.6-5.13-.28s-4.21,1.21-6.36.08l0,0c-1.95-1-2.63-3.13-3.32-4.79a22.75,22.75,0,0,1-2.92-2.22,9.65,9.65,0,0,0-2.94-1.78,4.84,4.84,0,0,0-1.45-.23A5.71,5.71,0,0,0,26.45,43a6.84,6.84,0,0,0-.37.65c-.2.37-.38.75-.54,1.13a8.09,8.09,0,0,0-.42,2.62,11.12,11.12,0,0,0,3.32,8.18A17.32,17.32,0,0,0,33.54,59a16.47,16.47,0,0,0,6.7,1.48h1.19a17.23,17.23,0,0,0,11.79-5A11.2,11.2,0,0,0,55.66,52,6.25,6.25,0,0,0,53.32,49.85Z"/><path class="cls-5" d="M54.19,38.17A10.89,10.89,0,0,1,56.63,31,12.25,12.25,0,0,1,65.14,27c0,.43.06.86.06,1.28a10.89,10.89,0,0,1-2.45,7.14,12.25,12.25,0,0,1-8.5,4.09Q54.19,38.82,54.19,38.17Z"/><path class="cls-5" d="M52.85,39.46a12.25,12.25,0,0,1-8.5-4.09,10.94,10.94,0,0,1-2.44-7.14c0-.42,0-.85.06-1.28A12.25,12.25,0,0,1,50.47,31a10.85,10.85,0,0,1,2.45,7.13C52.92,38.6,52.89,39,52.85,39.46Z"/></g><path class="cls-6" d="M51.48,6a5.92,5.92,0,0,1-2-2.2,4.54,4.54,0,0,1-1.18,1.1,5.29,5.29,0,0,1-1.47.78L46,4.6a4.41,4.41,0,0,0,2-1,2.84,2.84,0,0,0,1-1.74l.06-.41L47,1.11,47.13,0l5.52.8-.17,1.11-2.06-.3L50.37,2a2.34,2.34,0,0,0,.46,1.75A4.27,4.27,0,0,0,52.47,5.1Zm-1,4.45A4.8,4.8,0,0,1,48,9.51a1.7,1.7,0,0,1-.68-1.61,1.69,1.69,0,0,1,1.12-1.34A4.82,4.82,0,0,1,51,6.37a4.88,4.88,0,0,1,2.44.92,1.67,1.67,0,0,1,.69,1.6,1.7,1.7,0,0,1-1.12,1.36A4.75,4.75,0,0,1,50.45,10.44Zm.43-3c-1.36-.19-2.08,0-2.17.62s.55,1,1.9,1.23,2.09,0,2.18-.64S52.25,7.68,50.88,7.48Zm3.78-3.14-.34,2.35L53,6.5l.88-6,1.33.2-.37,2.51,1.56.23-.16,1.12Z"/><path class="cls-6" d="M64.75,5.21a7.58,7.58,0,0,1-2.87,3.17,9.26,9.26,0,0,1-4.41,1.34L57,8.4a7,7,0,0,0,3.38-.63A6.21,6.21,0,0,0,63,5.63L59.67,4.08l.48-1Zm-2.58,9.22,4.41-9.37,1.19.56L63.37,15Z"/><path class="cls-6" d="M75.3,12.53a7.57,7.57,0,0,1-3.67,2.22,9.29,9.29,0,0,1-4.6,0l-.12-1.42a6.86,6.86,0,0,0,3.42.37,6,6,0,0,0,3.15-1.29L70.76,10l.76-.85Zm-5.13,8.1,6.92-7.72,1,.88-6.91,7.72Z"/><path class="cls-6" d="M74.74,26.68a5.36,5.36,0,0,1-.92-2.5,1.64,1.64,0,0,1,.79-1.55,1.61,1.61,0,0,1,1.73,0,5.23,5.23,0,0,1,1.8,2,5.11,5.11,0,0,1,.91,2.5,1.6,1.6,0,0,1-.77,1.53,1.63,1.63,0,0,1-1.74,0A5.39,5.39,0,0,1,74.74,26.68Zm2.45-1.5q-1.11-1.83-1.86-1.38a.75.75,0,0,0-.28.81,4,4,0,0,0,.63,1.49,3.8,3.8,0,0,0,1,1.24.72.72,0,0,0,.84.12C78.06,27.16,77.94,26.39,77.19,25.18Zm-1-5,1-.59,5,8.2-1,.59Zm6,6.39a6.73,6.73,0,0,1-.53-4.07A4.63,4.63,0,0,1,80,21.68a8.11,8.11,0,0,1-1.67-1.5L78.74,19A6.52,6.52,0,0,0,80.4,20.7a2.66,2.66,0,0,0,1.58.59l-1.51-2.46,1-.59,3.86,6.32-1,.59L82.83,22.7a3,3,0,0,0-.18,1.72,5.76,5.76,0,0,0,.71,2.14Z"/><path class="cls-6" d="M78.26,32.57l2.8-.73.34,1.31-1.71.44L81.1,39l-1.1.28Zm3-2.24L82.36,30l2.43,9.31-1.1.28Zm3.06,4.17a4.78,4.78,0,0,1-.09-2.63,1.73,1.73,0,0,1,1.25-1.29,1.79,1.79,0,0,1,1.75.52,4.81,4.81,0,0,1,1.22,2.32A4.81,4.81,0,0,1,88.53,36a1.79,1.79,0,0,1-1.28,1.31,1.74,1.74,0,0,1-1.72-.52A4.78,4.78,0,0,1,84.33,34.5Zm3.06-.8a3.32,3.32,0,0,0-.67-1.45.86.86,0,0,0-.88-.34.83.83,0,0,0-.59.73,3.84,3.84,0,0,0,.14,1.58,3.57,3.57,0,0,0,.66,1.45.81.81,0,0,0,.85.35.84.84,0,0,0,.61-.72A3.3,3.3,0,0,0,87.39,33.7Z"/><path class="cls-6" d="M79.12,52.09l10.26,1.44-.18,1.31L78.94,53.4Zm9.57-.26A7.61,7.61,0,0,1,84.81,50a9.24,9.24,0,0,1-2.58-3.81l1.11-.89a7,7,0,0,0,1.6,3,6.17,6.17,0,0,0,2.83,1.89l.51-3.61,1.12.15Z"/><path class="cls-6" d="M75.48,61.72,78,62.88l2.34-5.05,1,.48-2.89,6.27-3.55-1.64Zm3.94,1.84,2.3,1.06.83-1.79,1,.45-.83,1.8,2.17,1-.55,1.2-5.46-2.53Zm1-1.79a5.93,5.93,0,0,1,2.69-1.3,4.42,4.42,0,0,1-.72-1.4,5.23,5.23,0,0,1-.34-1.67l1.26-.47a4.48,4.48,0,0,0,.42,2.22,2.93,2.93,0,0,0,1.37,1.46l.48.22.89-1.94,1,.47-2.33,5.06-1-.48L85,62.06l-.44-.21a2.45,2.45,0,0,0-1.81-.06A4.12,4.12,0,0,0,81,63Z"/><path class="cls-6" d="M72.28,73.72l-3.65-3.23.9-1,7.76,6.87-.91,1-3.26-2.89-1,1.17-.85-.75Zm-1.14-3.3Q73,68,75.69,65l1,.64c-.41.46-.91,1-1.52,1.75l2.52,2.23-.9,1-2.51-2.22c-.85,1-1.59,1.88-2.21,2.67Zm6.2,4.32q-2-1.77-4-3.8l.92-.93c.44.51,1.45,1.5,3,3L80,70l.86.76Z"/><path class="cls-6" d="M68.2,72.89l.59,1L65.29,76l1.08,1.75,2.21-1.36,2.55,4.12L65.56,84,65,83l4.42-2.73L68,78.06l-4.56,2.82-.59-.95,2.35-1.46-1.08-1.75L60.62,78.9,60,78Z"/><path class="cls-6" d="M48.2,86.39l-.29-1.85,1.34-.22.82,5.21-1.34.21-.35-2.23-1.53.24-.17-1.12Zm5.37-7.68.7,4.37-6.46,1L47.64,83l5.13-.81-.09-.58-5,.79-.16-1,5-.78-.1-.62-5.35.85-.17-1.1ZM51.37,89a5.42,5.42,0,0,1,.85-3.34,8.09,8.09,0,0,1,3-2.69l1,.94a5.4,5.4,0,0,0-3.44,3.71l3.32-.52.18,1.12Z"/><path class="cls-6" d="M44.78,83.59l-.15,1.12L35.1,83.44l.15-1.12Zm-5,1.26a4.85,4.85,0,0,1,2.47.91,1.73,1.73,0,0,1,.71,1.64,1.78,1.78,0,0,1-1.14,1.43,4.78,4.78,0,0,1-2.61.25,4.74,4.74,0,0,1-2.45-.93A1.8,1.8,0,0,1,36,86.48a1.76,1.76,0,0,1,1.13-1.4A4.8,4.8,0,0,1,39.76,84.85ZM43.84,80l-.38,2.87-1.34-.18.23-1.75-5.53-.73L37,79Zm-4.5,8a3.49,3.49,0,0,0,1.6-.08.85.85,0,0,0,.64-.69.83.83,0,0,0-.45-.81,3.78,3.78,0,0,0-1.52-.47A3.65,3.65,0,0,0,38,86a.79.79,0,0,0-.64.66.86.86,0,0,0,.43.84A3.61,3.61,0,0,0,39.34,88Z"/><path class="cls-7" d="M22,77.38l2.65-4.53,1.16.68-5.24,8.94-1.16-.68,2-3.43L20,77.54l.57-1Zm3.8-.87a7.13,7.13,0,0,1,.76,3.4A7.45,7.45,0,0,1,30,78.76l.44,1.31a5.07,5.07,0,0,0-2.63.58,4.57,4.57,0,0,0-1.94,1.76l-1,1.76-1.16-.68,1-1.73a4.66,4.66,0,0,0-.22-4.85Z"/><path class="cls-7" d="M12.49,70.3l1.74-1.62.92,1-4.43,4.12-.92-1,1.86-1.73-1.07-1.15.83-.77Zm2.55.17A26.58,26.58,0,0,1,18,73.25l1.36,1.47L17,76.92l-2.47-2.66-.66.61,2.47,2.66-.83.77-3.38-3.64,2.27-2.12,2.48,2.66.75-.7-.82-.87a19.29,19.29,0,0,0-2.43-2.31Zm4.55-2.29a4.83,4.83,0,0,1,1.33,2.25,1.73,1.73,0,0,1-.49,1.69,1.69,1.69,0,0,1-1.71.34A4.8,4.8,0,0,1,16.58,71a4.81,4.81,0,0,1-1.32-2.24,1.65,1.65,0,0,1,.47-1.68,1.68,1.68,0,0,1,1.71-.36A4.74,4.74,0,0,1,19.59,68.18Zm-2.19,2c.94,1,1.63,1.29,2.08.87s.23-1.14-.71-2.15-1.64-1.3-2.1-.87S16.46,69.21,17.4,70.22Z"/><path class="cls-7" d="M12.84,57.54,3.55,62.12,3,60.92l9.29-4.57Zm-2.16,5.81a3,3,0,0,1,.25,2.15,2.4,2.4,0,0,1-1.32,1.57,2.39,2.39,0,0,1-2.07.08A3.15,3.15,0,0,1,6,65.6a3,3,0,0,1-.25-2.15A2.45,2.45,0,0,1,7.06,61.9a2.35,2.35,0,0,1,2.05-.08A3,3,0,0,1,10.68,63.35ZM7,65.13a1.43,1.43,0,0,0,.86.8A1.41,1.41,0,0,0,9,65.83,1.4,1.4,0,0,0,9.76,65a1.63,1.63,0,0,0-1-1.95,1.46,1.46,0,0,0-1.12.09,1.49,1.49,0,0,0-.76.84A1.44,1.44,0,0,0,7,65.13Zm7.7.08-1,.63q-2.17-4.43-3.39-6.55l1-.55Q13,61.71,14.71,65.21Z"/><path class="cls-7" d="M5.28,44.61l-5.2.32L0,43.61l5.19-.32Zm0,1.85a6.31,6.31,0,0,1-1.76,2.43,4.58,4.58,0,0,1,1.27.92,5.12,5.12,0,0,1,1,1.31l-.9,1a4.76,4.76,0,0,0-1.48-1.81,2.87,2.87,0,0,0-1.88-.56l-1,.06L.52,48.46l1-.06a2.54,2.54,0,0,0,1.68-.82,3.94,3.94,0,0,0,1-1.86Zm5.3,3.21-2.82.17-.32-5.36-.63,0,.33,5.36L6,50l-.4-6.68,2.79-.17.33,5.35.66,0L9,42.79l1.13-.07Z"/><path class="cls-7" d="M7.75,34.9A5.54,5.54,0,0,1,6.68,36a5.49,5.49,0,0,1-1.27.82,5,5,0,0,1,.89,1.24,6.1,6.1,0,0,1,.6,1.54l-1.08.68A4.9,4.9,0,0,0,5,38.17a2.57,2.57,0,0,0-1.49-1L3,37,2.5,39.24,1.43,39,2,36.76.82,36.5l.31-1.32,1.13.26.51-2.21,1.08.25-.52,2.21.52.13a2.25,2.25,0,0,0,1.75-.4A3.75,3.75,0,0,0,6.94,33.9Zm1.43-1.44L5.91,32.7l-.44,1.85-1.08-.26.43-1.85L2,31.77l.3-1.28,7.22,1.69Zm1.3,5.82L7.15,38.5l.3-1.32,2.23.53,1.26-5.4,1.11.26Z"/><path class="cls-6" d="M9.92,26.36a2.67,2.67,0,0,1-1.61,1.31,2.46,2.46,0,0,1-2-.26,2.46,2.46,0,0,1-1.22-1.6,2.67,2.67,0,0,1,.32-2.06,2.71,2.71,0,0,1,1.63-1.32,2.47,2.47,0,0,1,2,.26,2.42,2.42,0,0,1,1.21,1.6A2.7,2.7,0,0,1,9.92,26.36ZM6.39,24.31a1.34,1.34,0,0,0-.15,1.09,1.52,1.52,0,0,0,.74.87,1.54,1.54,0,0,0,1.12.21,1.45,1.45,0,0,0,1-1.77,1.52,1.52,0,0,0-.74-.87,1.48,1.48,0,0,0-1.12-.2A1.32,1.32,0,0,0,6.39,24.31Zm5.89-1.53L7.47,20l.66-1.15,4.81,2.79Zm1.28,6.94L10,27.65l.66-1.15.92.53,2-3.5L12.66,23l.66-1.13,3.58,2.07Zm1-5.63-2,3.51.74.42,2-3.5Z"/><path class="cls-6" d="M20.43,15.86a15.29,15.29,0,0,1-2.37,2.63l-1.71,1.59-4.5-4.78,1-.91,3.72,3.95c1-.94,1.67-1.59,2-2a12,12,0,0,0,1-1.21Zm2.73,2-7.1-7.55,1-.91L24.13,17Z"/><path class="cls-6" d="M29.52,10.43a34.74,34.74,0,0,1-3.54,2l-1.4.7-3-5.92L26,5l.51,1L23.33,7.57l2,3.9.47-.23a29.39,29.39,0,0,0,3.16-1.75Zm.87-3,2.37,4.74-1.2.6L26.93,3.52l1.2-.6,1.76,3.51,1.54-.77.51,1Z"/><path class="cls-6" d="M34.32,10.06a.76.76,0,0,1,.1-.64,1,1,0,0,1,1.23-.35.74.74,0,0,1,.41.5.72.72,0,0,1-.09.64.9.9,0,0,1-.56.4.93.93,0,0,1-.68,0A.79.79,0,0,1,34.32,10.06Z"/></g></g></svg>