<svg width="1096" height="191" viewBox="0 0 1096 191" fill="none" xmlns="http://www.w3.org/2000/svg">
<path d="M675.305 176.418L676.738 176.314C763.571 170.194 813.409 134.305 860.161 111.225C904.707 89.2353 946.662 68.438 1015.36 63.6147C1084.44 58.7396 1147.89 68.464 1196.19 88.6907C1195.86 88.3018 1195.69 87.8869 1195.36 87.4979C1141.77 18.3119 1007.91 -15.5809 876.976 6.90195C809.274 18.5194 775.755 43.751 740.14 70.4607C702.761 98.4929 667.917 139.854 582.353 154.532L580.92 154.765C564.05 157.669 547.29 159.121 530.695 159.614C573.312 170.946 621.001 180.23 675.305 176.418Z" fill="#F0907B"/>
<path d="M674.202 221.592L675.801 221.696C771.84 227.842 848.252 197.086 912.976 179.427C974.613 162.597 1032.78 146.675 1108.75 151.55C1153.24 154.403 1192.44 162.26 1225.02 173.878C1227.78 145.949 1218.24 117.476 1196.19 88.6658C1147.89 68.439 1084.43 58.7405 1015.36 63.5897C946.661 68.439 904.651 89.2103 860.16 111.2C813.409 134.306 763.57 170.169 676.738 176.289L675.304 176.393C621 180.205 573.256 170.921 530.695 159.615C515.203 160.056 499.876 159.615 484.825 158.552C533.065 183.369 587.315 216.017 674.202 221.592Z" fill="#EB6851"/>
<path d="M1108.8 151.523C1032.83 146.648 974.669 162.57 913.032 179.399C848.308 197.059 771.84 227.84 675.857 221.668L674.258 221.564C587.371 215.989 533.121 183.367 484.826 158.55C434.216 154.972 386.527 144.521 345.068 138.246C299.86 131.4 256.361 124.969 210.768 125.85C192.078 126.213 173.003 127.692 153.321 131.063C79.8305 143.665 29.9366 170.168 9.81359 203.231C7.7186 207.743 5.95441 212.359 4.57612 217.104C2.31573 224.962 0.827174 232.741 0.000202342 240.417C0.716911 256.157 7.11213 272.572 19.9578 289.195C64.1181 346.089 143.342 387.372 255.7 411.878C325.276 427.074 407.752 437.239 494.088 440.143C583.456 443.151 676.959 438.406 764.729 423.236L809.385 415.586C982.002 386.153 1117.13 319.275 1183.12 252.734C1208.59 227.062 1222.43 200.715 1225.02 173.902C1192.49 162.233 1153.29 154.375 1108.8 151.523Z" fill="#D01F2D"/>
</svg>
