<svg width="1192" height="240" viewBox="0 0 1192 240" fill="none" xmlns="http://www.w3.org/2000/svg">
<path d="M535.147 96.0097L533.753 95.9532C449.293 92.6227 400.816 73.091 355.342 60.5308C312.013 48.5634 271.204 37.2452 204.387 34.6202C137.195 31.9671 75.4726 37.2593 28.4971 48.267C28.8188 48.0553 28.9797 47.8295 29.3014 47.6179C81.425 9.96567 211.627 -8.47938 338.986 3.75617C404.838 10.0786 437.442 23.8101 472.084 38.3459C508.442 53.6016 542.333 76.111 625.559 84.0987L626.953 84.2257C643.362 85.8063 659.664 86.5966 675.805 86.8648C634.353 93.0319 587.967 98.0842 535.147 96.0097Z" fill="#F0907B"/>
<path d="M536.219 120.594L534.664 120.65C441.249 123.995 366.924 107.258 303.968 97.6469C244.016 88.4879 187.441 79.8228 113.546 82.4759C70.2704 84.0283 32.143 88.3044 0.450579 94.6268C-2.23067 79.4276 7.04646 63.9321 28.4965 48.2531C75.4721 37.2453 137.195 31.9673 204.387 34.6063C271.204 37.2453 312.066 48.5495 355.341 60.5169C400.815 73.0911 449.292 92.6088 533.752 95.9393L535.146 95.9958C587.967 98.0703 634.406 93.018 675.805 86.865C690.873 87.1049 705.781 86.865 720.421 86.2863C673.499 99.792 620.732 117.56 536.219 120.594Z" fill="#EB6851"/>
<path d="M113.492 82.4614C187.388 79.8083 243.962 88.4734 303.915 97.6324C366.871 107.243 441.249 123.995 534.61 120.636L536.165 120.579C620.678 117.545 673.445 99.7916 720.421 86.286C769.649 84.3384 816.035 78.6511 856.361 75.2359C900.333 71.5102 942.643 68.0103 986.991 68.4901C1005.17 68.6877 1023.72 69.4921 1042.87 71.3267C1114.35 78.1854 1162.88 92.6084 1182.45 110.602C1184.49 113.057 1186.21 115.569 1187.55 118.152C1189.75 122.428 1191.2 126.662 1192 130.839C1191.3 139.405 1185.08 148.339 1172.59 157.385C1129.63 188.348 1052.57 210.815 943.287 224.151C875.612 232.421 795.389 237.953 711.412 239.534C624.486 241.171 533.538 238.588 448.166 230.332L404.73 226.169C236.83 210.151 105.395 173.755 41.2057 137.543C16.431 123.571 2.97106 109.233 0.450682 94.6405C32.0895 88.2899 70.2169 84.0138 113.492 82.4614Z" fill="#D01F2D"/>
</svg>
