<svg width="782" height="345" viewBox="0 0 782 345" fill="none" xmlns="http://www.w3.org/2000/svg">
<path d="M430.922 206.986L431.837 207.067C487.246 211.855 519.049 239.932 548.881 257.987C577.307 275.19 604.079 291.46 647.914 295.233C691.994 299.047 732.487 291.44 763.305 275.616C763.094 275.92 762.988 276.245 762.777 276.549C728.582 330.674 643.164 357.189 559.611 339.601C516.41 330.512 495.021 310.773 472.294 289.878C448.442 267.948 426.208 235.59 371.608 224.108L370.694 223.926C359.929 221.653 349.234 220.517 338.645 220.132C365.839 211.267 396.27 204.004 430.922 206.986Z" fill="#F0907B"/>
<path d="M430.219 171.646L431.239 171.565C492.523 166.757 541.283 190.817 582.584 204.632C621.916 217.799 659.031 230.255 707.509 226.441C735.9 224.209 760.913 218.062 781.704 208.974C783.463 230.823 777.377 253.097 763.305 275.636C732.487 291.46 691.995 299.047 647.914 295.253C604.08 291.46 577.272 275.21 548.882 258.007C519.049 239.931 487.246 211.875 431.837 207.087L430.923 207.006C396.27 204.024 365.804 211.286 338.645 220.131C328.759 219.787 318.979 220.131 309.375 220.963C340.158 201.549 374.775 176.008 430.219 171.646Z" fill="#EB6851"/>
<path d="M707.544 226.462C659.066 230.276 621.951 217.819 582.619 204.653C541.318 190.838 492.523 166.758 431.274 171.586L430.254 171.667C374.81 176.029 340.193 201.55 309.375 220.964C277.079 223.764 246.648 231.939 220.193 236.848C191.345 242.204 163.588 247.235 134.494 246.545C122.568 246.261 110.396 245.105 97.8363 242.468C50.9411 232.608 19.103 211.875 6.26221 186.01C4.92537 182.48 3.79961 178.869 2.92011 175.156C1.47772 169.01 0.527847 162.924 0.000144166 156.919C0.457487 144.605 4.53837 131.763 12.7354 118.759C40.9147 74.2502 91.4686 41.9537 163.166 22.7828C207.563 10.8947 260.193 2.94233 315.285 0.670213C372.312 -1.68305 431.978 2.02944 487.985 13.8972L516.481 19.8818C626.63 42.9072 712.856 95.2267 754.967 147.283C771.22 167.366 780.051 187.978 781.704 208.954C760.948 218.083 735.935 224.23 707.544 226.462Z" fill="#D01F2D"/>
</svg>
