<svg width="637" height="402" viewBox="0 0 637 402" fill="none" xmlns="http://www.w3.org/2000/svg">
<g opacity="0.6" clip-path="url(#clip0_1063_6579)">
<path d="M227.151 22.8977L181.716 45.4208V105.334L227.151 82.4365V22.8977Z" fill="white"/>
<path d="M136.305 22.8977L181.716 45.4208V105.334L136.305 82.4365V22.8977Z" fill="#E68C78"/>
<path d="M181.716 0L227.151 22.8977L181.716 45.4208L136.305 22.8977L181.716 0Z" fill="#DE6650"/>
<path d="M317.998 22.8977L272.586 45.4208V105.334L317.998 82.4365V22.8977Z" fill="white"/>
<path d="M227.151 22.8977L272.586 45.4208V105.334L227.151 82.4365V22.8977Z" fill="#E68C78"/>
<path d="M272.586 0L317.998 22.8977L272.586 45.4208L227.151 22.8977L272.586 0Z" fill="#DE6650"/>
<path d="M272.586 105.334L227.151 127.857V187.771L272.586 164.873V105.334Z" fill="white"/>
<path d="M181.74 105.334L227.151 127.857V187.771L181.74 164.873V105.334Z" fill="#E68C78"/>
<path d="M227.151 82.4365L272.586 105.334L227.151 127.857L181.74 105.334L227.151 82.4365Z" fill="#DE6650"/>
<path d="M363.433 105.334L318.021 127.857V187.771L363.433 164.873V105.334Z" fill="white"/>
<path d="M272.586 105.334L318.021 127.857V187.771L272.586 164.873V105.334Z" fill="#E68C78"/>
<path d="M318.021 82.4365L363.433 105.334L318.021 127.857L272.586 105.334L318.021 82.4365Z" fill="#DE6650"/>
<path d="M408.891 22.8977L363.457 45.4208V105.334L408.891 82.4365V22.8977Z" fill="white"/>
<path d="M318.045 22.8977L363.456 45.4208V105.334L318.045 82.4365V22.8977Z" fill="#E68C78"/>
<path d="M363.456 0L408.891 22.8977L363.456 45.4208L318.045 22.8977L363.456 0Z" fill="#DE6650"/>
<path d="M499.738 22.8977L454.326 45.4208V105.334L499.738 82.4365V22.8977Z" fill="white"/>
<path d="M408.891 22.8977L454.326 45.4208V105.334L408.891 82.4365V22.8977Z" fill="#E68C78"/>
<path d="M454.326 0L499.738 22.8977L454.326 45.4208L408.891 22.8977L454.326 0Z" fill="#DE6650"/>
<path d="M454.326 105.334L408.891 127.857V187.771L454.326 164.873V105.334Z" fill="white"/>
<path d="M363.479 105.334L408.891 127.857V187.771L363.479 164.873V105.334Z" fill="#E68C78"/>
<path d="M408.891 82.4365L454.326 105.334L408.891 127.857L363.479 105.334L408.891 82.4365Z" fill="#DE6650"/>
<path d="M545.173 105.334L499.761 127.857V187.771L545.173 164.873V105.334Z" fill="white"/>
<path d="M454.326 105.334L499.761 127.857V187.771L454.326 164.873V105.334Z" fill="#E68C78"/>
<path d="M499.761 82.4365L545.173 105.334L499.761 127.857L454.326 105.334L499.761 82.4365Z" fill="#DE6650"/>
<path d="M318.021 187.771L272.586 210.294V270.207L318.021 247.31V187.771Z" fill="white"/>
<path d="M227.175 187.771L272.586 210.294V270.207L227.175 247.31V187.771Z" fill="#E68C78"/>
<path d="M272.586 164.873L318.021 187.771L272.586 210.294L227.175 187.771L272.586 164.873Z" fill="#DE6650"/>
<path d="M408.868 187.771L363.456 210.294V270.207L408.868 247.31V187.771Z" fill="white"/>
<path d="M318.021 187.771L363.456 210.294V270.207L318.021 247.31V187.771Z" fill="#E68C78"/>
<path d="M363.456 164.873L408.867 187.771L363.456 210.294L318.021 187.771L363.456 164.873Z" fill="#DE6650"/>
<path d="M363.456 270.207L318.021 292.73V352.644L363.456 329.746V270.207Z" fill="white"/>
<path d="M272.61 270.207L318.021 292.73V352.644L272.61 329.746V270.207Z" fill="#E68C78"/>
<path d="M318.021 247.31L363.456 270.207L318.021 292.73L272.61 270.207L318.021 247.31Z" fill="#DE6650"/>
<path d="M454.303 270.207L408.891 292.73V352.644L454.303 329.746V270.207Z" fill="white"/>
<path d="M363.456 270.207L408.891 292.73V352.644L363.456 329.746V270.207Z" fill="#E68C78"/>
<path d="M408.891 247.31L454.303 270.207L408.891 292.73L363.456 270.207L408.891 247.31Z" fill="#DE6650"/>
<path d="M499.761 187.771L454.326 210.294V270.207L499.761 247.31V187.771Z" fill="white"/>
<path d="M408.915 187.771L454.326 210.294V270.207L408.915 247.31V187.771Z" fill="#E68C78"/>
<path d="M454.326 164.873L499.761 187.771L454.326 210.294L408.915 187.771L454.326 164.873Z" fill="#DE6650"/>
<path d="M590.608 187.771L545.196 210.294V270.207L590.608 247.31V187.771Z" fill="white"/>
<path d="M499.761 187.771L545.196 210.294V270.207L499.761 247.31V187.771Z" fill="#E68C78"/>
<path d="M545.196 164.873L590.608 187.771L545.196 210.294L499.761 187.771L545.196 164.873Z" fill="#DE6650"/>
<path d="M545.196 270.207L499.761 292.73V352.644L545.196 329.746V270.207Z" fill="white"/>
<path d="M454.35 270.207L499.761 292.73V352.644L454.35 329.746V270.207Z" fill="#E68C78"/>
<path d="M499.761 247.309L545.196 270.207L499.761 292.73L454.35 270.207L499.761 247.309Z" fill="#DE6650"/>
<path d="M636.042 270.207L590.631 292.73V352.644L636.042 329.746V270.207Z" fill="white"/>
<path d="M545.196 270.207L590.631 292.73V352.644L545.196 329.746V270.207Z" fill="#E68C78"/>
<path d="M590.631 247.309L636.042 270.207L590.631 292.73L545.196 270.207L590.631 247.309Z" fill="#DE6650"/>
<path d="M181.717 105.334L136.305 127.834V187.771L181.717 164.873V105.334Z" fill="white"/>
<path d="M90.8701 105.334L136.305 127.834V187.771L90.8701 164.873V105.334Z" fill="#E68C78"/>
<path d="M136.305 82.4131L181.717 105.334L136.305 127.834L90.8701 105.334L136.305 82.4131Z" fill="#DE6650"/>
<path d="M90.8465 270.184L45.4351 292.707V352.62L90.8465 329.722V270.184Z" fill="white"/>
<path d="M0 270.184L45.435 292.707V352.62L0 329.722V270.184Z" fill="#E68C78"/>
<path d="M45.435 247.286L90.8465 270.184L45.435 292.707L0 270.184L45.435 247.286Z" fill="#DE6650"/>
<path d="M136.282 187.747L90.8701 210.27V270.207L136.282 247.309V187.747Z" fill="white"/>
<path d="M45.4351 187.747L90.87 210.27V270.207L45.4351 247.309V187.747Z" fill="#E68C78"/>
<path d="M90.87 164.85L136.281 187.747L90.87 210.27L45.4351 187.747L90.87 164.85Z" fill="#DE6650"/>
<path d="M227.151 187.747L181.74 210.27V270.207L227.151 247.309V187.747Z" fill="white"/>
<path d="M136.305 187.747L181.74 210.27V270.207L136.305 247.309V187.747Z" fill="#E68C78"/>
<path d="M181.74 164.85L227.151 187.747L181.74 210.27L136.305 187.747L181.74 164.85Z" fill="#DE6650"/>
<path d="M318.021 352.62L272.586 375.143V435.08L318.021 412.159V352.62Z" fill="white"/>
<path d="M227.175 352.62L272.586 375.143V435.08L227.175 412.159V352.62Z" fill="#E68C78"/>
<path d="M272.586 329.723L318.021 352.62L272.586 375.143L227.175 352.62L272.586 329.723Z" fill="#DE6650"/>
<path d="M408.868 352.62L363.456 375.143V435.08L408.868 412.159V352.62Z" fill="white"/>
<path d="M318.021 352.62L363.456 375.143V435.08L318.021 412.159V352.62Z" fill="#E68C78"/>
<path d="M363.456 329.723L408.867 352.62L363.456 375.143L318.021 352.62L363.456 329.723Z" fill="#DE6650"/>
<path d="M499.761 352.62L454.326 375.143V435.08L499.761 412.159V352.62Z" fill="white"/>
<path d="M408.915 352.62L454.326 375.143V435.08L408.915 412.159V352.62Z" fill="#E68C78"/>
<path d="M454.326 329.723L499.761 352.62L454.326 375.143L408.915 352.62L454.326 329.723Z" fill="#DE6650"/>
<path d="M590.608 352.62L545.196 375.143V435.08L590.608 412.159V352.62Z" fill="white"/>
<path d="M499.761 352.62L545.196 375.143V435.08L499.761 412.159V352.62Z" fill="#E68C78"/>
<path d="M545.196 329.723L590.608 352.62L545.196 375.143L499.761 352.62L545.196 329.723Z" fill="#DE6650"/>
<path d="M136.282 352.62L90.8701 375.143V435.057L136.282 412.159V352.62Z" fill="white"/>
<path d="M45.4351 352.62L90.87 375.143V435.057L45.4351 412.159V352.62Z" fill="#E68C78"/>
<path d="M90.87 329.723L136.281 352.62L90.87 375.143L45.4351 352.62L90.87 329.723Z" fill="#DE6650"/>
<path d="M227.151 352.62L181.74 375.143V435.057L227.151 412.159V352.62Z" fill="white"/>
<path d="M136.305 352.62L181.74 375.143V435.057L136.305 412.159V352.62Z" fill="#E68C78"/>
<path d="M181.74 329.723L227.151 352.62L181.74 375.143L136.305 352.62L181.74 329.723Z" fill="#DE6650"/>
<path d="M181.717 270.184L136.305 292.707V352.62L181.717 329.723V270.184Z" fill="white"/>
<path d="M90.8701 270.184L136.305 292.707V352.62L90.8701 329.723V270.184Z" fill="#E68C78"/>
<path d="M136.305 247.286L181.717 270.184L136.305 292.707L90.8701 270.184L136.305 247.286Z" fill="#DE6650"/>
<path d="M272.586 270.184L227.175 292.707V352.62L272.586 329.722V270.184Z" fill="white"/>
<path d="M181.74 270.184L227.175 292.707V352.62L181.74 329.722V270.184Z" fill="#E68C78"/>
<path d="M227.175 247.286L272.586 270.184L227.175 292.707L181.74 270.184L227.175 247.286Z" fill="#DE6650"/>
</g>
<defs>
<clipPath id="clip0_1063_6579">
<rect width="636.042" height="600" fill="white"/>
</clipPath>
</defs>
</svg>
