<svg xmlns="http://www.w3.org/2000/svg" viewBox="0 0 111.37 23.1"><defs><style>.cls-1{fill:#e68b78;}.cls-2{fill:#df654f;}</style></defs><g id="레이어_2" data-name="레이어 2"><g id="레이어_1-2" data-name="레이어 1"><path class="cls-1" d="M18.4,7.85h3.48V10.6a1.39,1.39,0,0,1-.54,1.23,2.48,2.48,0,0,1-1.44.37H18.4v7.6a3.21,3.21,0,0,1-3.25,3.25H13.32v-1a12.06,12.06,0,0,1-2.67.7,19.87,19.87,0,0,1-2.1.12H1.75a1.79,1.79,0,0,1-1.3-.44A1.71,1.71,0,0,1,0,21.17V.1H5.07V19h3.6a18,18,0,0,0,2.23-.15,14.48,14.48,0,0,0,2.42-.6V.08H18.4Z"/><path class="cls-1" d="M23.27,14.3h7.15V13.08H23.67a1.76,1.76,0,0,1-1.2-.37,1.52,1.52,0,0,1-.4-1.16V9.28H43.52v2.27a1.48,1.48,0,0,1-.4,1.16,1.72,1.72,0,0,1-1.2.37H35.5V14a1.26,1.26,0,0,1,0,.3H42.3v7.18a1.52,1.52,0,0,1-.43,1.16,1.66,1.66,0,0,1-1.2.41H24.9a1.66,1.66,0,0,1-1.2-.41,1.56,1.56,0,0,1-.43-1.16ZM23.27,0h5.1v4.7h14V7A1.36,1.36,0,0,1,42,8.06a1.56,1.56,0,0,1-1.1.34H24.75a1.58,1.58,0,0,1-1.1-.34A1.36,1.36,0,0,1,23.27,7Zm14,19.2V18.15h-8.9v1.08Z"/><path class="cls-2" d="M46.3,14.7a1.76,1.76,0,0,1-1.2-.36,1.49,1.49,0,0,1-.4-1.17V10.85H53V9.7H50a4.91,4.91,0,0,1-3.13-1,3,3,0,0,1-1.29-2.47V3.5A3.07,3.07,0,0,1,46.84,1,4.92,4.92,0,0,1,50,0h11a4.94,4.94,0,0,1,3.14,1A3.07,3.07,0,0,1,65.35,3.5V6.23A3,3,0,0,1,64.06,8.7a4.94,4.94,0,0,1-3.14,1H58.1v1.15h8.05v2.32a1.49,1.49,0,0,1-.4,1.17,1.76,1.76,0,0,1-1.2.36Zm1.27,8.35a1.72,1.72,0,0,1-1.21-.41,1.53,1.53,0,0,1-.44-1.16V15.55H51v3.62h13.9v2.31a1.5,1.5,0,0,1-.45,1.16,1.75,1.75,0,0,1-1.22.41ZM59.5,5.75a1.11,1.11,0,0,0,.77-.21.91.91,0,0,0,.23-.69.79.79,0,0,0-.28-.7A1.39,1.39,0,0,0,59.4,4H51.55a1.45,1.45,0,0,0-.83.2.82.82,0,0,0-.27.7.82.82,0,0,0,.27.69,1.37,1.37,0,0,0,.83.21Z"/><path class="cls-1" d="M88.25,11.75a1.44,1.44,0,0,1-.59,1.17,2,2,0,0,1-1.31.48H83.62V8.48H83v3.4a1.41,1.41,0,0,1-.48,1.1,1.92,1.92,0,0,1-1.32.42H78.32v-.62a14.81,14.81,0,0,1-1.95.34,17.94,17.94,0,0,1-1.87.11H69.27a1.63,1.63,0,0,1-1.1-.34,1.37,1.37,0,0,1-.37-1.06V.1h9.82V2.62a1.31,1.31,0,0,1-.35,1A1.55,1.55,0,0,1,76.2,4H72.72v.77h4.75l0,2.37a1.34,1.34,0,0,1-.35,1,1.57,1.57,0,0,1-1.08.32H72.72v.85h2l1.7,0A9.89,9.89,0,0,0,78.32,9V.08H83V4.3h.67V.08h4.63Zm0,9.63a1.54,1.54,0,0,1-.57,1.23,2,2,0,0,1-1.38.49H83.15V17.78H71.3a1.68,1.68,0,0,1-1.1-.32,1.35,1.35,0,0,1-.38-1.08V13.9h18.4Z"/><path class="cls-1" d="M111.37,19.1v2a1.75,1.75,0,0,1-.55,1.36,2,2,0,0,1-1.42.5H92.05a2,2,0,0,1-1.41-.5,1.73,1.73,0,0,1-.57-1.36v-2Zm-1-16.45A1.35,1.35,0,0,1,110,3.71a1.58,1.58,0,0,1-1.1.34H96.27V6.28h14V8.75a1.35,1.35,0,0,1-.37,1.06,1.58,1.58,0,0,1-1.1.34H96.27v2.43h14.4V15a1.37,1.37,0,0,1-.37,1.06,1.62,1.62,0,0,1-1.1.33H92.7a1.61,1.61,0,0,1-1.1-.33A1.37,1.37,0,0,1,91.22,15V.15h19.15Z"/></g></g></svg>