<svg width="296" height="249" viewBox="0 0 296 249" fill="none" xmlns="http://www.w3.org/2000/svg">
<g opacity="0.5">
<path d="M129.42 150.871L129.686 150.909C145.621 154.18 159.16 144.025 170.456 138.473C181.181 133.148 191.297 128.128 203.923 130.714C216.626 133.3 226.362 140.945 232.029 151.479C232.029 151.327 232.067 151.137 232.067 150.985C232.067 121.967 213.317 100.897 187.494 100.897C174.145 100.897 164.865 108.123 155.053 115.73C144.747 123.754 133.109 136.837 116.185 136.837H115.919C112.572 136.837 109.453 136.305 106.525 135.43C112.382 142.352 119.418 148.817 129.42 150.871Z" fill="#F0907B"/>
<path d="M123.108 167.528L123.374 167.68C139.271 176.047 156.727 169.544 170.419 167.11C183.425 164.79 195.71 162.584 208.298 169.24C215.676 173.119 221.419 178.519 225.526 184.909C229.786 174.754 231.954 163.573 232.03 151.517C226.363 140.944 216.589 133.338 203.924 130.752C191.298 128.166 181.182 133.224 170.457 138.51C159.199 144.101 145.66 154.217 129.687 150.947L129.421 150.909C119.457 148.855 112.383 142.389 106.488 135.506C103.712 134.669 101.125 133.566 98.6533 132.197C103.673 144.405 108.732 159.922 123.108 167.528Z" fill="#EB6851"/>
<path d="M208.298 169.202C195.71 162.584 183.426 164.752 170.419 167.072C156.766 169.506 139.271 176.048 123.374 167.643L123.108 167.491C108.732 159.884 103.674 144.367 98.6155 132.121C90.2867 127.596 83.3649 120.674 77.0137 115.73C70.0539 110.329 63.3604 105.157 55.2977 102.609C51.989 101.544 48.4901 100.897 44.5729 100.897C30.0829 100.897 17.7987 107.553 9.81211 118.506C8.8233 120.027 7.91054 121.625 7.03582 123.298C5.59062 126.074 4.25952 128.851 3.08055 131.627C1.10291 137.522 0 144.025 0 150.985C0 174.869 8.21479 195.177 24.4923 211.417C34.5706 221.457 47.5393 230.471 62.2194 237.05C77.394 243.858 94.318 248.041 111.66 248.003H120.484C154.522 248.079 187.115 231.878 207.614 211.455C215.524 203.582 221.495 194.683 225.565 184.909C221.419 178.482 215.676 173.081 208.298 169.202Z" fill="#D01F2D"/>
<path d="M214.688 82.9466C214.688 62.5237 220.811 44.4968 232.753 30.235C247.281 12.8546 269.453 2.31992 295.543 0C295.809 3.19464 295.999 6.38928 295.999 9.46983C295.999 29.8927 289.876 47.9196 277.934 62.1814C263.406 79.5618 241.234 90.0965 215.144 92.4164C214.878 89.2218 214.688 86.0652 214.688 82.9466Z" fill="#92C83D"/>
<path d="M204.838 92.4164C178.749 90.1345 156.576 79.5618 142.048 62.2194C130.106 47.9196 123.983 29.8927 123.983 9.46983C123.983 6.35125 124.174 3.19464 124.44 0C150.529 2.31992 172.702 12.8546 187.23 30.235C199.172 44.4968 205.295 62.5237 205.295 82.9466C205.295 86.0652 205.104 89.2218 204.838 92.4164Z" fill="#92C83D"/>
</g>
</svg>
