<svg xmlns="http://www.w3.org/2000/svg" viewBox="0 0 239.12 65.2"><defs><style>.cls-1{fill:#f0907b;}.cls-2{fill:#eb6851;}.cls-3{fill:#d01f2d;}.cls-4{fill:#92c83d;}.cls-5{fill:#221e1f;}</style></defs><g id="레이어_2" data-name="레이어 2"><path class="cls-1" d="M34,39.67h.07c4.19.86,7.75-1.8,10.71-3.27s5.49-2.72,8.81-2A10.63,10.63,0,0,1,61,39.83V39.7c0-7.63-4.93-13.17-11.72-13.17-3.52,0-5.95,1.9-8.53,3.9S35,36,30.55,36h-.08A8.68,8.68,0,0,1,28,35.62,10.92,10.92,0,0,0,34,39.67Z"/><path class="cls-2" d="M32.37,44.05l.07,0c4.18,2.2,8.78.48,12.37-.16,3.42-.61,6.65-1.18,10,.56a11.91,11.91,0,0,1,4.53,4.12A22.94,22.94,0,0,0,61,39.83a10.63,10.63,0,0,0-7.39-5.46c-3.32-.68-6,.64-8.81,2s-6.52,4.13-10.71,3.27H34a10.92,10.92,0,0,1-6-4.05,11.46,11.46,0,0,1-2.07-.87C27.26,38,28.59,42.05,32.37,44.05Z"/><path class="cls-3" d="M54.77,44.49c-3.31-1.74-6.54-1.17-10-.56-3.59.64-8.19,2.36-12.37.16l-.07,0c-3.78-2-5.11-6.08-6.44-9.3a42.85,42.85,0,0,1-5.68-4.32A19,19,0,0,0,14.54,27a9,9,0,0,0-2.81-.45,11.07,11.07,0,0,0-9.14,4.63c-.26.4-.5.82-.74,1.26-.38.73-.72,1.46-1,2.19A15.7,15.7,0,0,0,0,39.7,21.64,21.64,0,0,0,6.44,55.59a33.49,33.49,0,0,0,9.92,6.73,31.69,31.69,0,0,0,13,2.88h2.32a33.56,33.56,0,0,0,22.91-9.61,21.5,21.5,0,0,0,4.72-7A11.91,11.91,0,0,0,54.77,44.49Z"/><path class="cls-4" d="M56.45,21.81A21.11,21.11,0,0,1,61.2,8C65,3.38,70.85.61,77.71,0c.07.84.12,1.68.12,2.49a21.16,21.16,0,0,1-4.75,13.87c-3.82,4.56-9.65,7.34-16.51,7.94C56.5,23.46,56.45,22.63,56.45,21.81Z"/><path class="cls-4" d="M53.86,24.3c-6.86-.6-12.69-3.38-16.51-7.94A21.16,21.16,0,0,1,32.6,2.49c0-.81,0-1.65.12-2.49,6.86.61,12.69,3.38,16.51,8A21.11,21.11,0,0,1,54,21.81C54,22.63,53.93,23.46,53.86,24.3Z"/><path class="cls-5" d="M99.71,56.69c1.8,0,4.41-.33,4.41-4.35V33.09H99.71Z"/><path class="cls-5" d="M166,56.69c1.8,0,4.41-.33,4.41-4.35V33.09H166Z"/><path class="cls-5" d="M200.89,56.69c1.8,0,4.42-.33,4.42-4.35V33.09h-4.42Z"/><rect class="cls-5" x="77.7" y="49.5" width="19.32" height="3.78"/><path class="cls-5" d="M125.54,33.1H110.91V46h14.63Zm-4.4,9.17H115.3V36.86h5.84Z"/><rect class="cls-5" x="144.37" y="49.5" width="19.33" height="3.78"/><path class="cls-5" d="M224.89,40a6.82,6.82,0,1,0-13.64,0,6.82,6.82,0,0,0,13.64,0m-5.08,1.7a2.35,2.35,0,0,1-1.74.75,2.4,2.4,0,0,1-1.78-.75,2.33,2.33,0,0,1-.7-1.7,2.48,2.48,0,0,1,4.22-1.78,2.39,2.39,0,0,1,0,3.48"/><path class="cls-5" d="M80.47,40.06A6.76,6.76,0,1,0,93.2,36.88H96V33.1H89.51V30H85.09V33.1h-6.5v3.78h2.67a6.69,6.69,0,0,0-.79,3.18m6.76,2.65a2.65,2.65,0,1,1,2.65-2.65,2.64,2.64,0,0,1-2.65,2.65"/><path class="cls-5" d="M126.59,48.23A6.77,6.77,0,1,0,133.35,55a6.77,6.77,0,0,0-6.76-6.77m0,9.41A2.65,2.65,0,1,1,129.23,55a2.63,2.63,0,0,1-2.64,2.64"/><path class="cls-5" d="M153.49,46.71A6.76,6.76,0,1,0,146.74,40a6.77,6.77,0,0,0,6.75,6.76m0-9.41A2.66,2.66,0,1,1,150.84,40a2.66,2.66,0,0,1,2.65-2.65"/><path class="cls-5" d="M137.36,37.65V33.1h-4.42V48.78h0c1.8,0,4.42-.33,4.42-4.35v-3h3.58V37.65Z"/><path class="cls-5" d="M235.54,37.65V33.1h-4.42V48.78h0c1.81,0,4.42-.33,4.42-4.35v-3h3.58V37.65Z"/><path class="cls-5" d="M232.47,54.65l-5.6-5.76h-1s-6.06,6.17-6.21,6.36c-1.66,2.12-.43,3.69.56,4.68l6.11-6.11,6.08,6.11h0v0l0,0C233.51,58.85,234.88,57.07,232.47,54.65Z"/><path class="cls-5" d="M197.55,42.23l-5.32-9.13h-.78l-3.77,7.54h-.09l-3.77-7.54H183l-5.31,9.54a4.13,4.13,0,0,0,1.41,4.93h0l4.34-7.42L187.05,47h1.17l3.55-6.8,4.34,7.41h0C197.5,46.77,199.37,45.33,197.55,42.23Z"/></g></svg>