<svg width="167" height="24" viewBox="0 0 167 24" fill="none" xmlns="http://www.w3.org/2000/svg">
<path d="M13.75 22.425V0.574999H18.475V22.425H13.75ZM1.55 20.525L0.5 16.85C2.33333 16.2833 3.85833 15.25 5.075 13.75C6.29167 12.25 6.9 10.5583 6.9 8.675V4.75H1.05V1.05H11.6V8.125C11.6 11.2583 10.6917 13.9083 8.875 16.075C7.05833 18.2417 4.61667 19.725 1.55 20.525ZM37.6584 9.675C36.5084 9.64167 35.0251 9.30833 33.2084 8.675C31.3917 8.025 30.1834 7.33333 29.5834 6.6C28.3834 7.43333 27.0667 8.125 25.6334 8.675C24.2167 9.225 22.8417 9.55833 21.5084 9.675L20.3334 6.275C22.4167 5.94167 24.0667 5.40833 25.2834 4.675H20.9834V1.1H38.1584V4.675H33.8584C34.3417 4.975 34.8834 5.24167 35.4834 5.475C36.1001 5.69167 36.6167 5.84167 37.0334 5.925C37.4501 6.00833 38.0501 6.125 38.8334 6.275L37.6584 9.675ZM20.2334 13.85V10.275H38.8834V13.85H20.2334ZM22.2834 21.175C21.4334 20.5083 21.0084 19.7167 21.0084 18.8C21.0084 17.8833 21.4334 17.0917 22.2834 16.425C23.1334 15.7417 24.1917 15.25 25.4584 14.95C26.7251 14.65 28.1001 14.5 29.5834 14.5C31.0667 14.5 32.4417 14.6583 33.7084 14.975C34.9751 15.275 36.0334 15.7583 36.8834 16.425C37.7334 17.0917 38.1584 17.8833 38.1584 18.8C38.1584 19.7167 37.7334 20.5083 36.8834 21.175C36.0334 21.8583 34.9751 22.35 33.7084 22.65C32.4417 22.9667 31.0667 23.125 29.5834 23.125C28.1001 23.125 26.7251 22.9667 25.4584 22.65C24.1917 22.35 23.1334 21.8583 22.2834 21.175ZM25.9584 18.8C25.9584 19.2333 26.5584 19.5417 27.7584 19.725C28.9751 19.9083 30.1834 19.9083 31.3834 19.725C32.6001 19.5417 33.2084 19.2333 33.2084 18.8C33.2084 18.3833 32.6001 18.0917 31.3834 17.925C30.1834 17.7417 28.9751 17.7417 27.7584 17.925C26.5584 18.0917 25.9584 18.3833 25.9584 18.8ZM46.0621 15.725C44.7288 15.725 43.5621 15.35 42.5621 14.6C41.5788 13.85 40.8954 12.9417 40.5121 11.875C40.1454 10.8083 40.0788 9.65833 40.3121 8.425C40.5621 7.19167 41.1454 6.125 42.0621 5.225H40.1621V1.525H43.7371V0.099999H48.4121V1.525H51.9621V5.225H50.0871C51.0204 6.10833 51.6038 7.16667 51.8371 8.4C52.0704 9.63333 51.9954 10.7833 51.6121 11.85C51.2288 12.9167 50.5371 13.8333 49.5371 14.6C48.5371 15.35 47.3788 15.725 46.0621 15.725ZM53.3621 22.4V19.5C52.6454 20 51.1371 20.25 48.8371 20.25H39.4121V16.575H49.3121C51.2121 16.575 52.5621 16.3 53.3621 15.75V0.574999H58.0621V22.4H53.3621ZM47.2371 7.925C47.0038 6.99167 46.6121 6.525 46.0621 6.525C45.5121 6.525 45.1288 6.99167 44.9121 7.925C44.6954 8.85833 44.6954 9.79167 44.9121 10.725C45.1454 11.6583 45.5288 12.125 46.0621 12.125C46.6288 12.125 47.0204 11.6583 47.2371 10.725C47.4704 9.79167 47.4704 8.85833 47.2371 7.925ZM60.3232 12.4V1.075H71.5982V12.4H60.3232ZM77.9482 7.425V14.075H74.8232C77.0732 15.0583 78.1982 16.4333 78.1982 18.2C78.1982 19.25 77.7816 20.1583 76.9482 20.925C76.1316 21.7083 75.1066 22.2667 73.8732 22.6C72.6566 22.95 71.3232 23.125 69.8732 23.125C68.4399 23.125 67.1066 22.95 65.8732 22.6C64.6566 22.25 63.6316 21.6833 62.7982 20.9C61.9816 20.1333 61.5732 19.225 61.5732 18.175C61.5732 17.2417 61.8566 16.4333 62.4232 15.75C63.0066 15.05 63.7399 14.5333 64.6232 14.2C65.5066 13.85 66.4816 13.6 67.5482 13.45C68.6316 13.3 69.6566 13.25 70.6232 13.3C71.6066 13.3333 72.4816 13.4333 73.2482 13.6V0.599998H77.9482V3.725H80.2232V7.425H77.9482ZM67.1732 4.775H64.7482V8.725H67.1732V4.775ZM68.1982 17.1C67.0816 17.3167 66.5232 17.6917 66.5232 18.225C66.5232 18.7583 67.0816 19.1333 68.1982 19.35C69.3149 19.5667 70.4316 19.5583 71.5482 19.325C72.6816 19.1083 73.2482 18.7333 73.2482 18.2C73.2482 17.6833 72.6816 17.3167 71.5482 17.1C70.4316 16.8667 69.3149 16.8667 68.1982 17.1Z" fill="#F0907B"/>
<path d="M90.2574 8.6V1.1H106.857V4.3H94.9324V5.625H106.857V8.6H90.2574ZM89.2324 13.125V9.675H107.882V13.125H89.2324ZM89.9824 18.6C89.9824 17.6167 90.4074 16.7667 91.2574 16.05C92.1074 15.3167 93.1658 14.7917 94.4324 14.475C95.6991 14.1417 97.0741 13.9833 98.5574 14C100.041 14 101.416 14.1667 102.682 14.5C103.949 14.8167 105.007 15.3333 105.857 16.05C106.707 16.7667 107.132 17.6083 107.132 18.575C107.132 19.5583 106.707 20.4 105.857 21.1C105.007 21.8167 103.949 22.3333 102.682 22.65C101.416 22.9833 100.041 23.15 98.5574 23.15C97.0741 23.15 95.6991 22.9833 94.4324 22.65C93.1658 22.3333 92.1074 21.8167 91.2574 21.1C90.4074 20.4 89.9824 19.5667 89.9824 18.6ZM94.9324 18.6C94.9324 19.0667 95.5324 19.3917 96.7324 19.575C97.9491 19.775 99.1574 19.775 100.357 19.575C101.574 19.3917 102.182 19.0583 102.182 18.575C102.182 18.1083 101.574 17.775 100.357 17.575C99.1574 17.375 97.9491 17.375 96.7324 17.575C95.5324 17.775 94.9324 18.1167 94.9324 18.6ZM108.637 14.225V11.225H115.612V10.375H109.662V4.525H121.587V3.8H109.662V1.075H126.262V6.925H114.337V7.625H126.262V10.375H120.337V11.225H127.287V14.225H108.637ZM121.587 22.425V18.25H109.662V15.025H126.262V22.425H121.587ZM128.541 12.65V1.075H132.966V3.475H135.641V1.075H140.066V12.65H128.541ZM146.166 7.625V14.075H143.041C145.291 15.0583 146.416 16.4333 146.416 18.2C146.416 19.2667 145.999 20.1833 145.166 20.95C144.349 21.7333 143.324 22.3 142.091 22.65C140.874 23 139.541 23.1667 138.091 23.15C136.658 23.15 135.324 22.975 134.091 22.625C132.874 22.275 131.849 21.7083 131.016 20.925C130.199 20.1583 129.791 19.2417 129.791 18.175C129.791 17.2417 130.074 16.4333 130.641 15.75C131.224 15.05 131.958 14.5333 132.841 14.2C133.724 13.85 134.699 13.6 135.766 13.45C136.849 13.3 137.874 13.25 138.841 13.3C139.824 13.3333 140.699 13.4333 141.466 13.6V0.599998H146.166V3.95H148.441V7.625H146.166ZM135.641 6.7H132.966V9.2H135.641V6.7ZM134.741 18.225C134.741 18.7417 135.299 19.1083 136.416 19.325C137.533 19.5583 138.649 19.5583 139.766 19.325C140.899 19.1083 141.466 18.7333 141.466 18.2C141.466 17.6667 140.899 17.2917 139.766 17.075C138.649 16.8417 137.533 16.8417 136.416 17.075C135.299 17.2917 134.741 17.675 134.741 18.225ZM162.115 12.4V7.625H160.715V12.15H149.19V1.05H153.64V2.975H156.29V1.05H160.715V3.925H162.115V0.574999H166.815V12.4H162.115ZM150.69 22.425V13.225H155.39V14.55H162.115V13.225H166.815V22.425H150.69ZM156.29 6.425H153.64V8.45H156.29V6.425ZM162.115 17.75H155.39V18.95H162.115V17.75Z" fill="black"/>
</svg>
