<svg xmlns="http://www.w3.org/2000/svg" viewBox="0 0 184.95 23"><defs><style>.cls-1{fill:#e68b78;}.cls-2{fill:#231815;}</style></defs><g id="레이어_2" data-name="레이어 2"><g id="레이어_1-2" data-name="레이어 1"><path class="cls-1" d="M13.42,16.15v5a1.64,1.64,0,0,1-.62,1.29,2.12,2.12,0,0,1-1.42.54h-3V16.15H1.6a1.76,1.76,0,0,1-1.2-.36A1.49,1.49,0,0,1,0,14.62V12.3H21.45v2.32a1.49,1.49,0,0,1-.4,1.17,1.76,1.76,0,0,1-1.2.36ZM20.27.1V2.62a1.37,1.37,0,0,1-.36,1.06A1.61,1.61,0,0,1,18.82,4H13.75a4.66,4.66,0,0,0,2.07,2.27,9.9,9.9,0,0,0,5,1.41v3.84a15.33,15.33,0,0,1-6-1.21,8.08,8.08,0,0,1-4-3,8.08,8.08,0,0,1-4,3,15.33,15.33,0,0,1-6,1.21V7.68a9.9,9.9,0,0,0,5-1.41A4.66,4.66,0,0,0,8,4H2.6a1.63,1.63,0,0,1-1.09-.32,1.37,1.37,0,0,1-.36-1.06V.1Z"/><path class="cls-1" d="M27,19.05v-4.3h5v4.3h2.6v-4.3h5v4.3H44v2a1.74,1.74,0,0,1-.55,1.35,2,2,0,0,1-1.42.5H24.7a2,2,0,0,1-1.41-.5,1.72,1.72,0,0,1-.57-1.35v-2ZM42.9,9.8a4.06,4.06,0,0,1-1.29,3.06,4.34,4.34,0,0,1-3.14,1.24H28.12A4.33,4.33,0,0,1,25,12.86,4.06,4.06,0,0,1,23.7,9.8V4.3A4,4,0,0,1,25,1.23,4.36,4.36,0,0,1,28.12,0H38.47a4.37,4.37,0,0,1,3.14,1.23A4,4,0,0,1,42.9,4.3Zm-14-1a1.44,1.44,0,0,0,.31,1,1.5,1.5,0,0,0,1.16.37h6a1.51,1.51,0,0,0,1.17-.37,1.44,1.44,0,0,0,.31-1V5.27a1.46,1.46,0,0,0-.31-1,1.56,1.56,0,0,0-1.17-.34h-6a1.55,1.55,0,0,0-1.16.34,1.46,1.46,0,0,0-.31,1Z"/><path class="cls-1" d="M47.92,4a1.57,1.57,0,0,1-1.06-.41A1.46,1.46,0,0,1,46.4,2.4V.1H58.5V9.9q0,6.18-3.19,9.56t-8.86,3.39V18.93a6.14,6.14,0,0,0,4.87-2.16q1.88-2.14,1.88-6.54V4ZM65.3,19.75A3.21,3.21,0,0,1,62.05,23H60.22V0H65.3Z"/><path class="cls-1" d="M69.85,14.4A1.93,1.93,0,0,1,68.54,14a1.55,1.55,0,0,1-.49-1.23V10.52H70.4v-5h4.87v5h4.45a13.69,13.69,0,0,0,1.58-.09,4.13,4.13,0,0,0,1-.25V0H87.4V6h3.1V8.83A1.34,1.34,0,0,1,90,10a2.13,2.13,0,0,1-1.29.35H87.4v4.55a1.57,1.57,0,0,1-.53,1.24,2,2,0,0,1-1.4.46H82.32v-2.5a6.15,6.15,0,0,1-1.1.22,9.52,9.52,0,0,1-1.65.13Zm.32-10.55a1.57,1.57,0,0,1-1.06-.41,1.46,1.46,0,0,1-.46-1.14V0H81.42V5.5a8.26,8.26,0,0,1-.32,2.25,13.4,13.4,0,0,1-.63,1.83h-4.8a7.41,7.41,0,0,0,.52-1.83,13.3,13.3,0,0,0,.16-1.92v-2ZM71.32,23a1.72,1.72,0,0,1-1.21-.41,1.53,1.53,0,0,1-.44-1.16v-6.2h5.1V19.1H87.62v2.33a1.5,1.5,0,0,1-.45,1.16A1.75,1.75,0,0,1,86,23Z"/><path class="cls-2" d="M102.7.1V8h2V.1h5.1V21.18a1.71,1.71,0,0,1-.45,1.28,1.79,1.79,0,0,1-1.3.44H99.37a1.81,1.81,0,0,1-1.3-.44,1.71,1.71,0,0,1-.45-1.28V.1Zm2,18.9V12h-2V19ZM116,7.8h3.47v2.75a1.39,1.39,0,0,1-.53,1.22,2.48,2.48,0,0,1-1.44.38H116v7.6A3.21,3.21,0,0,1,112.75,23h-1.83V0H116Z"/><path class="cls-2" d="M128.15,19.05V16h5.1v3.07H141v2a1.74,1.74,0,0,1-.55,1.35,2,2,0,0,1-1.42.5H121.7a2,2,0,0,1-1.41-.5,1.72,1.72,0,0,1-.57-1.35v-2ZM139.67,8.27a1.34,1.34,0,0,1-.33,1,1.59,1.59,0,0,1-1.07.3H126v1.75h14.2V13.8a1.35,1.35,0,0,1-.37,1.06,1.58,1.58,0,0,1-1.1.34H122.37a1.58,1.58,0,0,1-1.1-.34,1.35,1.35,0,0,1-.37-1.06V5.73h13.67V4H122.25a1.56,1.56,0,0,1-1.06-.3,1.29,1.29,0,0,1-.34-1V.1h18.82Z"/><path class="cls-2" d="M144.27,4a1.53,1.53,0,0,1-1.06-.42,1.42,1.42,0,0,1-.46-1.13V.1H155V9.9q0,6.18-3.21,9.56t-8.89,3.39V18.93a6.23,6.23,0,0,0,4.9-2.16c1.26-1.43,1.9-3.61,1.9-6.54V4Zm17,3.82h3.47v2.75a1.39,1.39,0,0,1-.53,1.22,2.48,2.48,0,0,1-1.44.38h-1.5v7.6A3.21,3.21,0,0,1,158.05,23h-1.83V0h5.08Z"/><path class="cls-2" d="M167.57,4a1.57,1.57,0,0,1-1.06-.41,1.46,1.46,0,0,1-.46-1.14V.1h12.1V9.9q0,6.18-3.19,9.56t-8.86,3.39V18.93A6.14,6.14,0,0,0,171,16.77q1.88-2.14,1.88-6.54V4ZM185,19.75A3.21,3.21,0,0,1,181.7,23h-1.83V0H185Z"/></g></g></svg>