<svg width="134" height="44" viewBox="0 0 134 44" fill="none" xmlns="http://www.w3.org/2000/svg">
<path d="M0 0H134L106 44H0V0Z" fill="#FBB03F"/>
<path d="M35.325 23.225V32.85C35.325 32.9667 35.2667 33.075 35.15 33.175C35.05 33.2917 34.9417 33.35 34.825 33.35H27.75C27.4 33.35 27.0917 33.2083 26.825 32.925L24.4 30.475C24.1333 30.2083 24 29.9167 24 29.6V23.225C24 23.125 24.05 23.025 24.15 22.925C24.25 22.8083 24.3667 22.75 24.5 22.75H27.25C27.3833 22.75 27.5 22.8083 27.6 22.925C27.7 23.0417 27.75 23.1417 27.75 23.225V24.8C27.75 24.9167 27.7917 25.0333 27.875 25.15C27.975 25.25 28.1 25.3 28.25 25.3H31.125C31.2583 25.3 31.3667 25.25 31.45 25.15C31.5333 25.0333 31.575 24.9167 31.575 24.8V23.175C31.575 22.8917 31.7417 22.75 32.075 22.75H34.7C35.1167 22.75 35.325 22.9083 35.325 23.225ZM31.575 29.6V28.775C31.575 28.4417 31.4167 28.275 31.1 28.275L28.275 28.3C28.1583 28.3 28.0417 28.3583 27.925 28.475C27.8083 28.575 27.75 28.6833 27.75 28.8V29.625C27.75 29.9417 27.9167 30.1 28.25 30.1H31.125C31.2417 30.1 31.3417 30.05 31.425 29.95C31.525 29.85 31.575 29.7333 31.575 29.6ZM29.825 21.5C29.825 21.65 29.75 21.775 29.6 21.875C29.4667 21.9583 29.3417 22 29.225 22H17.75C17.65 22 17.5417 21.95 17.425 21.85C17.3083 21.75 17.25 21.65 17.25 21.55V18.7C17.25 18.4 17.4167 18.25 17.75 18.25H18.475C18.825 18.25 19 18.0833 19 17.75V13.85C19 13.5167 18.8417 13.35 18.525 13.35H17.75C17.6333 13.35 17.5167 13.3083 17.4 13.225C17.3 13.125 17.25 13.0167 17.25 12.9V10.05C17.25 9.75 17.4167 9.6 17.75 9.6H29.2C29.6167 9.6 29.825 9.76667 29.825 10.1V12.85C29.825 13 29.75 13.125 29.6 13.225C29.4667 13.3083 29.3417 13.35 29.225 13.35H28.55C28.45 13.35 28.3417 13.4083 28.225 13.525C28.125 13.625 28.075 13.7333 28.075 13.85V17.75C28.075 17.85 28.1333 17.9583 28.25 18.075C28.3833 18.1917 28.525 18.25 28.675 18.25H29.2C29.6167 18.25 29.825 18.4167 29.825 18.75V21.5ZM24.325 17.75V13.85C24.325 13.7167 24.275 13.6 24.175 13.5C24.075 13.4 23.9583 13.35 23.825 13.35H23.25C23.1167 13.35 23 13.4 22.9 13.5C22.8 13.6 22.75 13.7167 22.75 13.85V17.75C22.75 17.8833 22.8 18 22.9 18.1C23 18.2 23.1167 18.25 23.25 18.25H23.825C23.9583 18.25 24.075 18.2 24.175 18.1C24.275 18 24.325 17.8833 24.325 17.75ZM39.425 12.85C39.425 12.9833 39.375 13.1 39.275 13.2C39.175 13.3 39.075 13.35 38.975 13.35H35.8C35.6833 13.35 35.5667 13.3917 35.45 13.475C35.35 13.5583 35.3 13.6667 35.3 13.8V21.325C35.3 21.7583 35.1333 21.975 34.8 21.975H32.05C31.9 21.975 31.775 21.9083 31.675 21.775C31.5917 21.625 31.55 21.4917 31.55 21.375V13.35C31.55 13.0833 31.675 12.8 31.925 12.5L34.425 9.975C34.675 9.725 34.9667 9.6 35.3 9.6H38.925C39.2583 9.6 39.425 9.76667 39.425 10.1V12.85ZM57.7566 23.225V32.85C57.7566 32.9667 57.6983 33.075 57.5816 33.175C57.4816 33.2917 57.3733 33.35 57.2566 33.35H50.1816C49.8316 33.35 49.5233 33.2083 49.2566 32.925L46.8316 30.475C46.565 30.2083 46.4316 29.9167 46.4316 29.6V23.225C46.4316 23.125 46.4816 23.025 46.5816 22.925C46.6816 22.8083 46.7983 22.75 46.9316 22.75H49.6816C49.815 22.75 49.9316 22.8083 50.0316 22.925C50.1316 23.0417 50.1816 23.1417 50.1816 23.225V24.8C50.1816 24.9167 50.2233 25.0333 50.3066 25.15C50.4066 25.25 50.5316 25.3 50.6816 25.3H53.5566C53.69 25.3 53.7983 25.25 53.8816 25.15C53.965 25.0333 54.0066 24.9167 54.0066 24.8V23.175C54.0066 22.8917 54.1733 22.75 54.5066 22.75H57.1316C57.5483 22.75 57.7566 22.9083 57.7566 23.225ZM54.0066 29.6V28.775C54.0066 28.4417 53.8483 28.275 53.5316 28.275L50.7066 28.3C50.59 28.3 50.4733 28.3583 50.3566 28.475C50.24 28.575 50.1816 28.6833 50.1816 28.8V29.625C50.1816 29.9417 50.3483 30.1 50.6816 30.1H53.5566C53.6733 30.1 53.7733 30.05 53.8566 29.95C53.9566 29.85 54.0066 29.7333 54.0066 29.6ZM49.3066 11.425C50.49 12.6083 51.0816 14.0417 51.0816 15.725C51.0816 17.4083 50.49 18.85 49.3066 20.05C48.1233 21.2333 46.69 21.825 45.0066 21.825C43.3233 21.825 41.89 21.2333 40.7066 20.05C39.5233 18.85 38.9316 17.4083 38.9316 15.725C38.9316 14.0417 39.5233 12.6083 40.7066 11.425C41.89 10.2417 43.3233 9.65 45.0066 9.65C46.69 9.65 48.1233 10.2417 49.3066 11.425ZM46.5816 17.325C47.015 16.875 47.2316 16.3417 47.2316 15.725C47.2316 15.1083 47.015 14.5833 46.5816 14.15C46.1483 13.7167 45.6233 13.5 45.0066 13.5C44.39 13.5 43.8566 13.7167 43.4066 14.15C42.9733 14.5833 42.7566 15.1083 42.7566 15.725C42.7566 16.3417 42.9733 16.875 43.4066 17.325C43.8566 17.7583 44.39 17.975 45.0066 17.975C45.6233 17.975 46.1483 17.7583 46.5816 17.325ZM58.7316 21.225C58.7316 21.375 58.6566 21.5 58.5066 21.6C58.3733 21.6833 58.2483 21.725 58.1316 21.725H55.4816C55.3816 21.725 55.2733 21.675 55.1566 21.575C55.04 21.475 54.9816 21.375 54.9816 21.275V18.1C54.9816 17.7167 54.815 17.525 54.4816 17.525H52.0066C51.9066 17.525 51.7983 17.475 51.6816 17.375C51.565 17.275 51.5066 17.175 51.5066 17.075V14.2C51.5066 13.9167 51.6733 13.775 52.0066 13.775H54.4816C54.6316 13.775 54.7483 13.725 54.8316 13.625C54.9316 13.5083 54.9816 13.3833 54.9816 13.25V10.1C54.9816 9.8 55.1483 9.65 55.4816 9.65H58.1066C58.5233 9.65 58.7316 9.81667 58.7316 10.15V21.225ZM78.4467 17.7C78.63 17.9333 78.5467 18.2 78.1967 18.5L76.0717 20.275C75.8383 20.4917 75.58 20.4167 75.2967 20.05L70.6217 14.075C70.4883 13.9583 70.405 13.9083 70.3717 13.925C70.355 13.925 70.2967 13.9917 70.1967 14.125L65.4717 20.025C65.305 20.2417 65.18 20.3667 65.0967 20.4C65.03 20.4333 64.8967 20.4 64.6967 20.3L62.5717 18.725C62.2217 18.4583 62.1383 18.2 62.3217 17.95L66.0217 13.15H63.5217C63.3883 13.15 63.2717 13.1 63.1717 13C63.0717 12.9 63.0217 12.7833 63.0217 12.65V10.1C63.0217 9.96667 63.0717 9.85 63.1717 9.75C63.2717 9.65 63.3883 9.6 63.5217 9.6H77.3467C77.48 9.6 77.5967 9.65 77.6967 9.75C77.7967 9.85 77.8467 9.96667 77.8467 10.1V12.65C77.8467 12.7833 77.7967 12.9 77.6967 13C77.5967 13.1 77.48 13.15 77.3467 13.15H74.8467L78.4467 17.7ZM80.2717 24.4C80.2717 24.55 80.1967 24.675 80.0467 24.775C79.9133 24.8583 79.7883 24.9 79.6717 24.9H60.9717C60.8717 24.9 60.7633 24.85 60.6467 24.75C60.53 24.65 60.4717 24.5417 60.4717 24.425V21.6C60.4717 21.3167 60.6383 21.175 60.9717 21.175H67.9717C68.305 21.175 68.4717 21 68.4717 20.65V17.6C68.4717 17.2667 68.6383 17.1 68.9717 17.1H71.7467C71.88 17.1 71.9967 17.15 72.0967 17.25C72.1967 17.35 72.2467 17.45 72.2467 17.55V20.65C72.2467 20.9833 72.3967 21.15 72.6967 21.15H79.6467C80.0633 21.15 80.2717 21.3167 80.2717 21.65V24.4ZM77.0717 32.85C77.0717 32.9667 77.0133 33.075 76.8967 33.175C76.7967 33.2917 76.6883 33.35 76.5717 33.35H67.5467C67.2133 33.35 66.905 33.2083 66.6217 32.925L64.1967 30.5C63.93 30.2333 63.7967 29.9333 63.7967 29.6V26.225C63.7967 26.125 63.8467 26.025 63.9467 25.925C64.0467 25.8083 64.1633 25.75 64.2967 25.75H67.0467C67.18 25.75 67.2967 25.8083 67.3967 25.925C67.4967 26.0417 67.5467 26.1417 67.5467 26.225V29.15C67.5467 29.45 67.7133 29.6 68.0467 29.6H76.5717C76.605 29.6 76.655 29.6083 76.7217 29.625C76.7883 29.6417 76.8633 29.6833 76.9467 29.75C77.03 29.8333 77.0717 29.9417 77.0717 30.075V32.85Z" fill="white"/>
</svg>
