<svg width="227" height="25" viewBox="0 0 227 25" fill="none" xmlns="http://www.w3.org/2000/svg">
<path d="M5.26553 12.132C6.11508 11.1782 6.81323 10.1575 7.35997 9.05306C8.10017 9.7475 8.7899 10.467 9.43758 11.2033C10.0853 11.9396 10.6909 12.7177 11.2544 13.5627L13.147 12.0149V14.3994H16.0405V8.69329H18.2022V15.3699H21.1462V0.55249H18.2022V6.18328H16.0405V0.811858H13.147V11.4961C12.533 10.6595 11.818 9.7977 11.0021 8.91919C10.1862 8.03232 9.31141 7.19565 8.36092 6.41755C8.58803 5.58088 8.73943 4.72747 8.80672 3.84897C8.87402 2.97883 8.89084 2.09196 8.85719 1.20509H5.91321C5.96368 2.49357 5.91321 3.69 5.74498 4.79441C5.57675 5.89045 5.26553 6.91955 4.81132 7.88172C4.3571 8.84389 3.73466 9.73913 2.94399 10.5674C2.15332 11.3957 1.16918 12.1738 0 12.9101L2.18696 14.6922C3.38979 13.9392 4.41598 13.0858 5.26553 12.132Z" fill="#DF654F"/>
<path d="M18.0426 19.344C18.2528 19.6201 18.3622 19.9046 18.3622 20.1807C18.3622 20.4735 18.2613 20.758 18.0426 21.0341C17.8323 21.3018 17.5042 21.5528 17.0584 21.7703C16.6126 21.9879 16.0491 22.1636 15.3762 22.2974C14.7032 22.4313 13.8873 22.4899 12.9453 22.4899C11.9948 22.4899 11.1873 22.4229 10.5144 22.2974C9.84146 22.1719 9.28631 21.9879 8.85733 21.7703C8.62181 21.6532 8.41993 21.5193 8.25171 21.3771C7.20028 21.603 6.15727 21.8205 5.11426 22.0213C5.46754 22.5903 5.98904 23.1006 6.68719 23.5441C7.38533 23.9875 8.26012 24.3389 9.30313 24.6066C10.3461 24.866 11.5658 24.9999 12.9453 24.9999C14.3331 24.9999 15.5444 24.8744 16.5874 24.6234C17.6304 24.3724 18.5052 24.021 19.2202 23.5775C19.9267 23.1341 20.465 22.6237 20.8267 22.0464C21.1884 21.4691 21.3651 20.85 21.3651 20.189C21.3651 19.5448 21.1884 18.9257 20.8267 18.34C20.7931 18.2898 20.7594 18.248 20.7258 18.1978C19.708 18.4906 18.7071 18.7667 17.7313 19.0344C17.8491 19.1348 17.9669 19.2352 18.0426 19.344Z" fill="#E68B78"/>
<path d="M19.2204 16.7922C18.5054 16.3488 17.6306 15.9974 16.5876 15.7297C15.5446 15.4703 14.325 15.3364 12.9455 15.3364C11.6333 15.3364 10.4473 15.4536 9.40431 15.6878C8.3613 15.9221 7.48651 16.2568 6.77154 16.6918C6.05658 17.1269 5.51825 17.6456 5.13973 18.2397C4.76122 18.8337 4.57617 19.4779 4.57617 20.1807C4.57617 20.825 4.75281 21.4358 5.10609 22.0131C5.10609 22.0131 5.10609 22.0214 5.1145 22.0214C6.15751 21.8206 7.20053 21.6031 8.25195 21.3772C8.11737 21.2684 7.9912 21.1513 7.89867 21.0342C7.68839 20.7664 7.57904 20.482 7.57904 20.1807C7.57904 19.503 8.05008 18.9425 9.00056 18.5074C9.95105 18.0723 11.2632 17.8548 12.9455 17.8548C13.896 17.8548 14.7035 17.9217 15.3764 18.064C16.0493 18.2062 16.6129 18.3819 17.0587 18.5994C17.3278 18.7333 17.5381 18.8755 17.7232 19.0345C18.6989 18.7668 19.6998 18.4907 20.7176 18.1978C20.3643 17.6707 19.8681 17.2022 19.2204 16.7922Z" fill="#DF654F"/>
<path d="M43.3354 16.6752C42.6541 16.2401 41.7961 15.8971 40.7699 15.6377C39.7437 15.3867 38.5577 15.2612 37.2035 15.2612C35.8492 15.2612 34.6717 15.3867 33.6539 15.6377C32.6361 15.8887 31.7865 16.2318 31.0968 16.6752C30.4071 17.1186 29.9024 17.629 29.5575 18.223C29.2127 18.8171 29.0444 19.453 29.0444 20.1307C29.0444 20.8084 29.2127 21.4442 29.5575 22.0299C29.9024 22.6156 30.4155 23.1259 31.0968 23.561C31.7781 23.9961 32.6361 24.3391 33.6539 24.5817C34.6717 24.8244 35.8577 24.9499 37.2035 24.9499C38.5493 24.9499 39.7437 24.8244 40.7699 24.5817C41.7961 24.3391 42.6541 23.9961 43.3354 23.561C44.0167 23.1259 44.5382 22.6156 44.8915 22.0299C45.2448 21.4442 45.4214 20.8167 45.4214 20.1307C45.4214 19.453 45.2448 18.8171 44.8915 18.223C44.5382 17.629 44.0251 17.1103 43.3354 16.6752ZM41.1821 21.7789C40.3577 22.2474 39.0288 22.4817 37.2035 22.4817C35.3782 22.4817 34.066 22.2474 33.2585 21.7789C32.451 21.3104 32.0473 20.7582 32.0473 20.1307C32.0473 19.5032 32.451 18.9509 33.2585 18.4824C34.066 18.0139 35.3782 17.7796 37.2035 17.7796C39.0288 17.7796 40.3493 18.0139 41.1821 18.4824C42.0064 18.9509 42.4185 19.5032 42.4185 20.1307C42.4185 20.7582 42.0064 21.3104 41.1821 21.7789Z" fill="#E68B78"/>
<path d="M42.1577 15.211H45.1606V10.8938C44.1428 11.2034 43.1334 11.5046 42.1577 11.7974V15.211Z" fill="#E68B78"/>
<path d="M37.6579 13.2446V13.1526C37.557 13.1861 37.456 13.2112 37.3467 13.2446H37.6579Z" fill="#DF654F"/>
<path d="M42.1576 0.602783V3.5897H37.6575V1.67372H26.3862V13.2449H37.3463C37.4472 13.2114 37.5481 13.1863 37.6575 13.1528V10.944H42.1576V11.7974C43.1333 11.5046 44.1343 11.2034 45.1604 10.8938V0.602783H42.1576ZM34.6546 10.8353H29.3891V4.13353H34.6546V10.8353ZM37.6575 8.48422V6.04951H42.1828V8.48422H37.6575Z" fill="#DF654F"/>
<path d="M50.6279 18.1979H55.4224C57.0542 18.1979 58.6776 18.1059 60.2926 17.9134C61.9076 17.721 63.3207 17.4533 64.532 17.1019V14.5333C63.2703 14.8512 61.9497 15.1189 60.587 15.3448C59.216 15.5707 57.7103 15.6879 56.0617 15.6879H53.6392V8.66821C52.6467 8.89411 51.6457 9.12838 50.6363 9.38775V18.1979H50.6279Z" fill="#E68B78"/>
<path d="M50.6279 2.30127V9.3795C51.6373 9.12013 52.6383 8.88587 53.6308 8.65997V2.30127H50.6279Z" fill="#DF654F"/>
<path d="M65.5747 6.6602V19.5951C66.0037 19.3023 66.5168 19.1266 67.0719 19.1266C67.6271 19.1266 68.1486 19.3023 68.5692 19.5951V11.8894V9.37938V7.67257V6.37573C67.585 6.45103 66.5841 6.55143 65.5747 6.6602Z" fill="#E68B78"/>
<path d="M68.5776 4.13353V0.602783H65.5747V6.66028C66.5841 6.55151 67.585 6.45948 68.5776 6.38418V4.13353Z" fill="#DF654F"/>
<path d="M120.19 11.5463C120.19 10.9355 120.055 10.3498 119.786 9.78926C119.517 9.22869 119.122 8.74342 118.6 8.32509C118.079 7.90675 117.456 7.57208 116.716 7.32108C115.976 7.07008 115.143 6.94458 114.218 6.94458C113.267 6.94458 112.426 7.07008 111.695 7.32108C110.954 7.57208 110.332 7.90675 109.827 8.32509C109.323 8.74342 108.927 9.22869 108.658 9.78926C108.507 10.0988 108.406 10.4084 108.338 10.7347C109.314 10.9773 110.29 11.2283 111.257 11.4877C111.274 10.9188 111.501 10.4335 111.947 10.0319C112.409 9.61356 113.167 9.40439 114.226 9.40439C115.227 9.40439 115.976 9.61356 116.464 10.0319C116.952 10.4502 117.204 10.9606 117.204 11.5463C117.204 12.0566 117.011 12.5084 116.649 12.9184C117.625 13.1778 118.6 13.4371 119.576 13.6965C119.652 13.5794 119.736 13.4622 119.795 13.3367C120.055 12.7678 120.19 12.1738 120.19 11.5463Z" fill="#DF654F"/>
<path d="M123.294 24.7657H126.297V15.4452C125.296 15.1942 124.295 14.9432 123.294 14.6838V24.7657Z" fill="#E68B78"/>
<path d="M116.456 13.1191C115.968 13.5709 115.219 13.7968 114.218 13.7968C113.184 13.7968 112.427 13.5626 111.956 13.1024C111.484 12.6422 111.241 12.1235 111.241 11.5462C111.241 11.5295 111.249 11.5044 111.249 11.4876C110.273 11.2366 109.306 10.9856 108.33 10.7346C108.271 11.0024 108.246 11.2701 108.246 11.5462C108.246 12.1737 108.381 12.7761 108.65 13.3367C108.919 13.9056 109.314 14.3992 109.819 14.8259C110.332 15.2526 110.955 15.5957 111.686 15.8634C112.427 16.1228 113.268 16.2566 114.21 16.2566C115.143 16.2566 115.976 16.1311 116.708 15.8801C117.44 15.6291 118.071 15.2861 118.592 14.8427C118.996 14.508 119.299 14.1148 119.551 13.6964C118.575 13.4371 117.6 13.1777 116.624 12.9183C116.573 12.9853 116.523 13.0522 116.456 13.1191Z" fill="#E68B78"/>
<path d="M121.586 3.56451H115.581V0.862061H112.586V3.56451H106.665V6.02432H121.586V3.56451Z" fill="#DF654F"/>
<path d="M116.228 18.0388C115.152 18.089 114.092 18.1309 113.04 18.156C111.989 18.1811 111.022 18.1978 110.105 18.1978H105.84V20.7078H110.181C111.131 20.7078 112.132 20.6911 113.183 20.666C114.235 20.6409 115.295 20.599 116.371 20.5321C117.448 20.4652 118.491 20.3899 119.526 20.2978C120.56 20.2058 121.528 20.0803 122.419 19.9464V17.5117C121.486 17.6372 120.493 17.7376 119.433 17.8297C118.373 17.9133 117.305 17.9886 116.228 18.0388Z" fill="#E68B78"/>
<path d="M123.294 0.602783V14.6756C124.286 14.9349 125.287 15.186 126.297 15.437V0.602783H123.294Z" fill="#DF654F"/>
<path d="M142.295 1.67383H131.007V12.6426H142.295V1.67383ZM139.292 10.1326H134.001V4.19221H139.292V10.1326Z" fill="#DF654F"/>
<path d="M147.334 16.583C146.678 16.1395 145.845 15.7881 144.844 15.5371C143.843 15.2861 142.682 15.1606 141.37 15.1606C140.058 15.1606 138.906 15.2861 137.922 15.5371C136.937 15.7881 136.122 16.1395 135.457 16.583C135.112 16.8173 134.818 17.0766 134.565 17.3527C135.827 17.6205 137.064 17.8715 138.275 18.0974C138.527 18.0137 138.796 17.9384 139.108 17.8715C139.722 17.7376 140.479 17.679 141.37 17.679C142.262 17.679 143.027 17.746 143.65 17.8715C144.272 18.0053 144.777 18.181 145.172 18.3986C145.568 18.6161 145.854 18.8755 146.039 19.1683C146.081 19.2269 146.097 19.2938 146.123 19.3607C147.199 19.503 148.251 19.6285 149.294 19.7289C149.243 19.1767 149.092 18.6579 148.814 18.1559C148.486 17.5535 147.998 17.0264 147.334 16.583Z" fill="#DF654F"/>
<path d="M146.325 20.0805C146.325 20.3984 146.232 20.6996 146.047 20.9841C145.862 21.2686 145.576 21.5196 145.181 21.7287C144.786 21.9379 144.281 22.1052 143.658 22.2391C143.036 22.373 142.279 22.4315 141.379 22.4315C140.479 22.4315 139.722 22.3646 139.099 22.2391C138.477 22.1052 137.972 21.9379 137.602 21.7287C137.232 21.5196 136.946 21.2686 136.769 20.9841C136.593 20.6996 136.509 20.3984 136.509 20.0805C136.509 19.7626 136.593 19.4614 136.769 19.1685C136.946 18.8757 137.224 18.6163 137.611 18.3988C137.804 18.29 138.031 18.1896 138.284 18.106C137.072 17.8801 135.836 17.6291 134.574 17.3613C134.347 17.6123 134.154 17.8801 133.994 18.1645C133.666 18.7669 133.506 19.4112 133.506 20.0889C133.506 20.7666 133.666 21.4108 133.994 21.9965C134.322 22.5905 134.801 23.1092 135.457 23.5443C136.105 23.9794 136.929 24.3224 137.922 24.5818C138.914 24.8328 140.067 24.9583 141.379 24.9583C142.708 24.9583 143.877 24.8328 144.87 24.5818C145.862 24.3308 146.686 23.9878 147.343 23.5443C147.999 23.1092 148.495 22.5905 148.831 21.9965C149.168 21.4024 149.328 20.7666 149.328 20.0889C149.328 19.9717 149.319 19.8546 149.302 19.7375C148.268 19.6287 147.208 19.5032 146.131 19.3693C146.249 19.5869 146.325 19.8295 146.325 20.0805Z" fill="#E68B78"/>
<path d="M149.117 8.35035H152.801V5.84034H149.117V0.602783H146.114V15.0772H149.117V8.35035Z" fill="#DF654F"/>
<path d="M177.06 16.3657V13.8557H154.534V16.3657H164.51V20.0136C165.519 19.9383 166.52 19.8379 167.513 19.7208V16.3657H177.06Z" fill="#DF654F"/>
<path d="M159.876 10.2329C160.557 10.7182 161.415 11.1114 162.433 11.3959C163.45 11.6804 164.636 11.831 165.982 11.831C167.328 11.831 168.514 11.6888 169.532 11.3959C170.55 11.1114 171.399 10.7182 172.089 10.2329C172.779 9.74767 173.283 9.17874 173.628 8.5345C173.973 7.89027 174.141 7.21256 174.141 6.49303C174.141 5.78186 173.973 5.09579 173.628 4.43482C173.283 3.78221 172.77 3.20491 172.089 2.70291C171.408 2.20927 170.55 1.81604 169.532 1.5232C168.514 1.23874 167.328 1.08813 165.982 1.08813C164.611 1.08813 163.417 1.23037 162.407 1.5232C161.39 1.80767 160.54 2.20091 159.867 2.70291C159.194 3.19654 158.681 3.77385 158.336 4.43482C157.991 5.08742 157.823 5.77349 157.823 6.49303C157.823 7.21256 157.991 7.89027 158.336 8.5345C158.681 9.17874 159.194 9.74767 159.876 10.2329ZM161.129 5.39699C161.348 5.04559 161.676 4.74439 162.105 4.47665C162.534 4.21728 163.072 4.00812 163.72 3.84915C164.367 3.69018 165.124 3.61488 165.982 3.61488C166.84 3.61488 167.597 3.69018 168.245 3.84915C168.893 4.00812 169.431 4.21728 169.86 4.47665C170.289 4.73602 170.617 5.04559 170.836 5.39699C171.054 5.74839 171.164 6.11653 171.164 6.49303C171.164 7.26276 170.735 7.92373 169.877 8.4843C169.019 9.04487 167.715 9.32097 165.982 9.32097C164.224 9.32097 162.929 9.04487 162.071 8.4843C161.221 7.92373 160.792 7.26276 160.792 6.49303C160.801 6.10816 160.91 5.74002 161.129 5.39699Z" fill="#DF654F"/>
<path d="M164.51 24.6318H167.513V19.7122C166.52 19.8293 165.519 19.9297 164.51 20.005V24.6318Z" fill="#E68B78"/>
<path d="M189.013 8.37533C189.349 7.07012 189.492 5.77329 189.459 4.50155C189.122 4.51828 188.811 4.53501 188.525 4.54338C188.239 4.55175 187.97 4.56011 187.726 4.56011H186.304V1.021H183.36V4.55175H180.122V7.06176H184.916C185.27 7.06176 185.581 7.06176 185.867 7.04502C186.144 7.03666 186.397 7.01992 186.607 7.00319C186.557 7.89006 186.313 8.84387 185.884 9.85624C185.455 10.8686 184.883 11.8726 184.176 12.8683C183.47 13.8639 182.629 14.8177 181.661 15.7213C181.106 16.24 180.517 16.7169 179.912 17.1604C181.787 16.6165 183.672 15.989 185.581 15.303C185.758 15.0771 185.943 14.8595 186.111 14.6169C186.229 14.734 186.338 14.8595 186.456 14.985C187.339 14.6587 188.23 14.3157 189.131 13.9559C188.592 13.3786 188.062 12.8097 187.532 12.2909C188.18 10.9941 188.676 9.6889 189.013 8.37533Z" fill="#DF654F"/>
<path d="M192.326 0.862061V10.1324H189.559V12.6424H192.326C193.285 12.2324 194.236 11.8977 195.169 11.5965V0.862061H192.326Z" fill="#DF654F"/>
<path d="M197.037 0.602783V11.0612C198.021 10.8102 198.988 10.6177 199.93 10.4839V0.602783H197.037Z" fill="#DF654F"/>
<path d="M197.037 24.7659H199.93V10.4839C198.98 10.6261 198.021 10.8186 197.037 11.0612V24.7659Z" fill="#E68B78"/>
<path d="M178.515 18.1141L180.542 19.9966C181.703 19.2604 182.729 18.4488 183.638 17.5452C184.336 16.8508 184.975 16.0977 185.572 15.3113C183.663 15.9973 181.779 16.6249 179.903 17.1687C179.449 17.5034 178.986 17.8297 178.515 18.1141Z" fill="#E68B78"/>
<path d="M188.028 16.7925C188.668 17.5706 189.265 18.332 189.803 19.085L191.906 17.4618C191.275 16.4996 190.577 15.5877 189.803 14.7259C189.568 14.4665 189.34 14.2239 189.113 13.9729C188.213 14.3327 187.322 14.6757 186.438 15.002C186.968 15.5626 187.498 16.1566 188.028 16.7925Z" fill="#E68B78"/>
<path d="M192.327 24.1632H195.17V11.5964C194.236 11.8976 193.286 12.2323 192.327 12.6423V24.1632Z" fill="#E68B78"/>
<path d="M226.359 12.9604H216.307V11.1532H223.07V8.85234H210.016V7.4049H222.33V5.17936H210.016V3.61478H222.725V1.25537H207.038V10.3583C208.51 10.5257 209.923 10.8018 211.261 11.1532H213.305V11.7723C216.249 12.7847 218.78 14.1485 220.808 15.4704H226.359V12.9604Z" fill="#DF654F"/>
<path d="M221.161 17.721C219.781 16.9513 217.72 16.5664 214.961 16.5664C212.202 16.5664 210.142 16.9513 208.779 17.721C207.408 18.4907 206.727 19.4948 206.727 20.733C206.727 21.3438 206.895 21.9044 207.24 22.4231C207.585 22.9418 208.098 23.3853 208.779 23.7618C209.46 24.1383 210.318 24.4311 211.344 24.6403C212.371 24.8494 213.573 24.9582 214.961 24.9582C216.332 24.9582 217.527 24.8578 218.553 24.6403C219.579 24.4311 220.437 24.1383 221.135 23.7618C221.825 23.3853 222.347 22.9418 222.7 22.4231C223.053 21.9044 223.23 21.3438 223.23 20.733C223.23 19.4948 222.54 18.4907 221.161 17.721ZM218.965 21.9629C218.141 22.3143 216.803 22.49 214.961 22.49C213.119 22.49 211.782 22.3143 210.957 21.9629C210.133 21.6115 209.721 21.2016 209.721 20.733C209.721 20.2478 210.133 19.8378 210.957 19.5199C211.782 19.1936 213.119 19.0346 214.961 19.0346C216.803 19.0346 218.141 19.1936 218.965 19.5199C219.789 19.8462 220.202 20.2478 220.202 20.733C220.202 21.2016 219.789 21.6115 218.965 21.9629Z" fill="#E68B78"/>
<path d="M213.305 12.9603H203.354V15.4703H220.799C218.772 14.14 216.24 12.7846 213.296 11.7722V12.9603H213.305Z" fill="#E68B78"/>
<path d="M207.038 11.1532H211.261C209.923 10.7935 208.51 10.5174 207.038 10.3584V11.1532Z" fill="#DF654F"/>
<path d="M68.5776 7.67247H73.7591L72.6403 6.14136C71.3029 6.19156 69.9487 6.26686 68.5776 6.37563V7.67247Z" fill="#E68B78"/>
<path d="M73.7591 0.602783H68.5776V4.13353V6.37581C69.9487 6.26704 71.3029 6.19174 72.6403 6.14154L71.1683 4.13353L73.7591 0.602783Z" fill="#DF654F"/>
<path d="M65.5747 22.2557V19.5867C64.8766 20.0636 64.4224 20.8584 64.4224 21.762C64.4224 23.2178 65.6084 24.3975 67.072 24.3975C68.5355 24.3975 69.7216 23.2178 69.7216 21.762C69.7216 20.8584 69.2673 20.0636 68.5692 19.5867V22.2557H65.5747Z" fill="#E68B78"/>
<path d="M65.5747 19.5867V22.2557H68.5776V19.5867C68.1486 19.2939 67.6355 19.1182 67.0803 19.1182C66.5252 19.1182 66.0037 19.2939 65.5747 19.5867Z" fill="#E68B78"/>
<path d="M80.4218 6.07453V0.736572H77.4189V6.09126C83.0125 6.16656 88.3201 6.7104 93.451 7.54707V6.07453H80.4218Z" fill="#DF654F"/>
<path d="M77.4189 8.58459H93.451V7.54712C88.3201 6.70208 83.0209 6.15824 77.4189 6.09131V8.58459Z" fill="#E68B78"/>
<path d="M73.7593 13.3287H83.7352V16.1566H86.738V13.3287H96.7644V10.8103H73.7593V13.3287Z" fill="#E68B78"/>
<path d="M77.3433 16.1565V24.4061H93.1567V16.1565H86.7388H83.7359H77.3433ZM90.1201 17.5119C90.3641 17.3697 90.6753 17.4533 90.8099 17.696C90.9529 17.9386 90.8688 18.2398 90.6248 18.382C90.2211 18.6163 88.8753 19.3777 87.5883 19.9801L90.6501 21.9797C90.8856 22.1303 90.9445 22.4399 90.7931 22.6742C90.6921 22.8248 90.5323 22.9001 90.3725 22.9001C90.28 22.9001 90.179 22.875 90.0949 22.8164L86.478 20.457C85.9733 20.6494 85.5444 20.7749 85.2584 20.7749C84.9808 20.7749 84.5434 20.6494 84.0387 20.457L80.4218 22.8164C80.3377 22.875 80.2368 22.9001 80.1443 22.9001C79.976 22.9001 79.8162 22.8248 79.7237 22.6742C79.5723 22.4399 79.6396 22.1303 79.8667 21.9797L82.9284 19.9801C81.6415 19.3777 80.2957 18.6163 79.8919 18.382C79.648 18.2398 79.5639 17.9386 79.7069 17.696C79.8414 17.4533 80.1527 17.3697 80.3966 17.5119C82.0368 18.449 84.6275 19.7709 85.25 19.7709C85.8724 19.7709 88.4799 18.449 90.1201 17.5119Z" fill="#E68B78"/>
<path d="M94.7119 3.86575L97.5886 6.72717C97.6475 6.78573 97.698 6.83593 97.7568 6.87777C97.8157 6.82757 97.8746 6.77737 97.9251 6.72717L100.802 3.86575C100.861 3.80719 100.911 3.75699 100.953 3.69842C101.685 2.81155 101.634 1.49798 100.802 0.661307C99.969 -0.166997 98.6484 -0.217197 97.7484 0.510706C96.8568 -0.217197 95.5362 -0.166997 94.6951 0.661307C93.8624 1.48961 93.8119 2.80318 94.5437 3.69842C94.611 3.75699 94.6615 3.81555 94.7119 3.86575Z" fill="#E68B78"/>
</svg>
