<svg xmlns="http://www.w3.org/2000/svg" viewBox="0 0 117.45 24"><defs><style>.cls-1{fill:#e68b78;}.cls-2{fill:#231815;}</style></defs><g id="레이어_2" data-name="레이어 2"><g id="레이어_1-2" data-name="레이어 1"><path class="cls-1" d="M4.23,2.73V0h5.1V2.73h3.9v2.5a1.36,1.36,0,0,1-.37,1,1.61,1.61,0,0,1-1.09.32H1.45A1.63,1.63,0,0,1,.36,6.28a1.36,1.36,0,0,1-.36-1V2.73ZM.5,11.25a4,4,0,0,1,1-2.85A3.65,3.65,0,0,1,4.3,7.33H9A3.64,3.64,0,0,1,11.8,8.4a4,4,0,0,1,1,2.85V20a4,4,0,0,1-1,2.83A3.62,3.62,0,0,1,9,23.9H4.3a3.63,3.63,0,0,1-2.78-1.09A4,4,0,0,1,.5,20Zm5.08,7.5a1.42,1.42,0,0,0,.25,1,.88.88,0,0,0,.65.24h.37a.9.9,0,0,0,.65-.24,1.42,1.42,0,0,0,.25-1V12.48c0-.54-.08-.88-.25-1a.93.93,0,0,0-.65-.22H6.48a.92.92,0,0,0-.65.22c-.17.15-.25.49-.25,1Zm13.5,2A3.21,3.21,0,0,1,15.83,24H14V1h5.08Z"/><path class="cls-1" d="M41.9,20.75A3.21,3.21,0,0,1,38.65,24H36.83V13.83H35.25V20a4,4,0,0,1-1,2.83,3.63,3.63,0,0,1-2.78,1.09H26.73A3.62,3.62,0,0,1,24,22.81a4,4,0,0,1-1-2.83V4.88A4,4,0,0,1,24,2,3.65,3.65,0,0,1,26.73,1h4.72A3.66,3.66,0,0,1,34.23,2a4,4,0,0,1,1,2.85V9.8h1.58V1H41.9Zm-13.9-2a1.42,1.42,0,0,0,.25,1,.9.9,0,0,0,.65.24h.37a.88.88,0,0,0,.65-.24,1.42,1.42,0,0,0,.25-1V6.1a1.41,1.41,0,0,0-.25-1,.92.92,0,0,0-.65-.23H28.9a.94.94,0,0,0-.65.23,1.41,1.41,0,0,0-.25,1Z"/><path class="cls-1" d="M52.87,20.05V17H58v3.07h7.78v2a1.74,1.74,0,0,1-.55,1.35,2.06,2.06,0,0,1-1.43.5H46.42a2.08,2.08,0,0,1-1.41-.5,1.75,1.75,0,0,1-.56-1.35v-2ZM64.4,9.28a1.29,1.29,0,0,1-.34,1,1.56,1.56,0,0,1-1.06.3H50.7v1.75H64.9V14.8a1.36,1.36,0,0,1-.38,1.06,1.56,1.56,0,0,1-1.1.34H47.1a1.58,1.58,0,0,1-1.1-.34,1.36,1.36,0,0,1-.38-1.06V6.73H59.3V5H47a1.58,1.58,0,0,1-1.06-.3,1.33,1.33,0,0,1-.34-1V1.1H64.4Z"/><path class="cls-2" d="M91.1,16.75v5.43a1.59,1.59,0,0,1-.59,1.25,2.08,2.08,0,0,1-1.39.5H86V16.75H83.1v5.43a1.59,1.59,0,0,1-.59,1.25,2.08,2.08,0,0,1-1.39.5H78V16.75H75a1.76,1.76,0,0,1-1.2-.36,1.52,1.52,0,0,1-.4-1.16V12.9H94.87v2.33a1.48,1.48,0,0,1-.4,1.16,1.72,1.72,0,0,1-1.2.36ZM74.65,1h5.1V7.1H93.82V9.53a1.37,1.37,0,0,1-.37,1.06,1.63,1.63,0,0,1-1.1.34H76.12a1.63,1.63,0,0,1-1.1-.34,1.37,1.37,0,0,1-.37-1.06Z"/><path class="cls-2" d="M117.45,20.05v2a1.74,1.74,0,0,1-.55,1.35,2.06,2.06,0,0,1-1.43.5H98.12a2.08,2.08,0,0,1-1.41-.5,1.75,1.75,0,0,1-.56-1.35v-2Zm-10.7-8.43a9.25,9.25,0,0,1-4,3.56,12.66,12.66,0,0,1-6,1.52v-4a8.2,8.2,0,0,0,5-1.82A5.81,5.81,0,0,0,104.2,6V1h5.1V6a5.81,5.81,0,0,0,2.4,4.91,8.2,8.2,0,0,0,5,1.82v4a12.66,12.66,0,0,1-6-1.52A9.2,9.2,0,0,1,106.75,11.62Z"/></g></g></svg>