<svg width="80" height="80" viewBox="0 0 80 80" fill="none" xmlns="http://www.w3.org/2000/svg">
<path d="M59.5147 16.5808H20.4849V63.419H59.5147V16.5808Z" fill="white"/>
<path d="M30.6807 26.7411H30.6924C31.4686 26.8939 32.1271 26.4118 32.668 26.1413C33.1855 25.8826 33.6794 25.6357 34.2908 25.765C34.9023 25.8944 35.3845 26.2589 35.655 26.7763C35.655 26.7646 35.655 26.7646 35.655 26.7528C35.655 25.3417 34.7495 24.3186 33.4912 24.3186C32.8444 24.3186 32.3976 24.6714 31.9154 25.0359C31.4098 25.424 30.8453 26.059 30.0221 26.059H30.0104C29.8457 26.059 29.6929 26.0355 29.5518 25.9885C29.8457 26.3295 30.1868 26.6352 30.6807 26.7411Z" fill="#EE907B"/>
<path d="M30.3747 27.5526L30.3864 27.5644C31.1626 27.976 32.0093 27.6585 32.6678 27.5409C33.3028 27.4233 33.9025 27.3174 34.514 27.6467C34.8668 27.8348 35.149 28.0936 35.349 28.4111C35.5606 27.9172 35.6665 27.3762 35.6665 26.7883C35.396 26.2708 34.9139 25.9063 34.3024 25.7769C33.6909 25.6476 33.197 25.8945 32.6795 26.1532C32.1269 26.4237 31.4801 26.9176 30.7039 26.753H30.6922C30.21 26.6589 29.869 26.3414 29.575 26.0004C29.4457 25.9651 29.3163 25.9063 29.1987 25.8357C29.4222 26.4237 29.6691 27.1763 30.3747 27.5526Z" fill="#EA6852"/>
<path d="M34.5141 27.6348C33.9026 27.3173 33.3029 27.4232 32.6679 27.529C32.0093 27.6466 31.1509 27.9641 30.3865 27.5525L30.3748 27.5408C29.6809 27.1762 29.434 26.4118 29.187 25.8239C28.7872 25.6004 28.4462 25.2712 28.1404 25.0242C27.7994 24.7655 27.4819 24.5068 27.0821 24.3892C26.9175 24.3422 26.7528 24.3069 26.5647 24.3069C25.8591 24.3069 25.2594 24.6244 24.8713 25.1653C24.8243 25.2359 24.7772 25.3182 24.7302 25.4005C24.6596 25.5299 24.6008 25.671 24.542 25.8003C24.448 26.0826 24.3892 26.4001 24.3892 26.7411C24.3892 27.9053 24.789 28.8931 25.5769 29.681C26.0708 30.1749 26.694 30.61 27.4114 30.9275C28.1522 31.2568 28.9754 31.4567 29.8103 31.4567H30.2336C31.8917 31.4567 33.4675 30.6688 34.4671 29.681C34.8551 29.2929 35.1374 28.8696 35.3373 28.3874C35.1491 28.0817 34.8669 27.823 34.5141 27.6348Z" fill="#CE0E2D"/>
<path d="M34.8198 23.4366C34.8198 22.4488 35.1138 21.5668 35.7018 20.873C36.4074 20.0263 37.4892 19.5207 38.7475 19.4031C38.7593 19.5559 38.771 19.7088 38.771 19.8617C38.771 20.8495 38.477 21.7315 37.8891 22.4253C37.1835 23.272 36.1016 23.7776 34.8433 23.8952C34.8316 23.7423 34.8198 23.5895 34.8198 23.4366Z" fill="#9AC31B"/>
<path d="M34.3373 23.8952C33.0673 23.7776 31.9972 23.272 31.2916 22.4253C30.7154 21.7315 30.4097 20.8613 30.4097 19.8617C30.4097 19.7088 30.4214 19.5559 30.4332 19.4031C31.7032 19.5207 32.7733 20.0263 33.4789 20.873C34.0551 21.5668 34.3609 22.437 34.3609 23.4366C34.3609 23.5895 34.3491 23.7423 34.3373 23.8952Z" fill="#9AC31B"/>
<path d="M24.3892 58.0332H55.6107" stroke="#D1D1D1" stroke-width="2" stroke-miterlimit="10"/>
<path d="M24.3892 51.9417H55.6107" stroke="#D1D1D1" stroke-width="2" stroke-miterlimit="10"/>
<path d="M24.3892 45.8503H55.6107" stroke="#D1D1D1" stroke-width="2" stroke-miterlimit="10"/>
<path d="M24.3892 39.7588H55.6107" stroke="#D1D1D1" stroke-width="2" stroke-miterlimit="10"/>
<path d="M24.3892 33.6555H55.6107" stroke="#D1D1D1" stroke-width="2" stroke-miterlimit="10"/>
<path d="M40.5586 27.5642H55.6108" stroke="#D1D1D1" stroke-width="2" stroke-miterlimit="10"/>
<path d="M40.5586 21.4727H55.6108" stroke="#D1D1D1" stroke-width="2" stroke-miterlimit="10"/>
<path d="M52.1067 49.9543L56.4459 54.2818L75.5904 35.1373L71.2512 30.8098L62.5962 22.1431L43.4517 41.2876L52.1067 49.9543Z" fill="url(#paint0_linear_1108_3005)"/>
<path d="M44.4513 53.2823L49.0375 53.7291L44.0044 48.696L44.4513 53.2823Z" fill="url(#paint1_linear_1108_3005)"/>
<path d="M43.4517 41.2876L44.0044 48.6961L49.0374 53.7292L56.4459 54.2819L43.4517 41.2876Z" fill="white"/>
<defs>
<linearGradient id="paint0_linear_1108_3005" x1="66.0151" y1="44.7132" x2="53.0196" y2="31.7177" gradientUnits="userSpaceOnUse">
<stop offset="0.0363" stop-color="#D4634F"/>
<stop offset="0.3823" stop-color="#C4242E"/>
<stop offset="0.5503" stop-color="#C1282E"/>
<stop offset="0.5759" stop-color="#C32C30"/>
<stop offset="0.9252" stop-color="#DE6650"/>
</linearGradient>
<linearGradient id="paint1_linear_1108_3005" x1="47.9997" y1="54.7652" x2="42.9677" y2="49.7332" gradientUnits="userSpaceOnUse">
<stop offset="0.0862" stop-color="#C4242E"/>
<stop offset="0.5503" stop-color="#C1282E"/>
<stop offset="0.5759" stop-color="#C32C30"/>
<stop offset="0.9252" stop-color="#DE6650"/>
</linearGradient>
</defs>
</svg>
