<svg width="150" height="150" viewBox="0 0 150 150" fill="none" xmlns="http://www.w3.org/2000/svg">
<path d="M116.155 18.7418H22.4019V131.236H116.155V18.7418Z" fill="white"/>
<path d="M46.8985 43.1501H46.9205C48.7727 43.5249 50.3602 42.3563 51.6831 41.6948C52.9399 41.0775 54.1085 40.4821 55.5858 40.7908C57.0631 41.0995 58.2097 41.9815 58.8711 43.2162C58.8711 43.1942 58.8711 43.1721 58.8711 43.1501C58.8711 39.7545 56.6883 37.3071 53.6676 37.3071C52.1021 37.3071 51.0217 38.1449 49.8751 39.0489C48.6624 39.975 47.3174 41.5184 45.333 41.5184H45.311C44.9141 41.5184 44.5613 41.4523 44.2085 41.3641C44.892 42.1579 45.7299 42.9075 46.8985 43.1501Z" fill="#EE907B"/>
<path d="M46.1487 45.0904L46.1707 45.1125C48.0229 46.0826 50.0734 45.3329 51.661 45.0463C53.1823 44.7817 54.6155 44.5171 56.0708 45.2888C56.9307 45.7519 57.6142 46.3693 58.0772 47.1189C58.5844 45.9283 58.8269 44.6274 58.8269 43.2162C58.1654 41.9815 57.0189 41.0995 55.5416 40.7908C54.0643 40.4821 52.8957 41.0775 51.6389 41.6948C50.316 42.3563 48.7505 43.5249 46.8763 43.1501H46.8543C45.6857 42.9075 44.8698 42.1579 44.1863 41.3421C43.8556 41.2539 43.5689 41.1216 43.2603 40.9452C43.8776 42.4004 44.473 44.2084 46.1487 45.0904Z" fill="#EA6852"/>
<path d="M56.093 45.2888C54.6157 44.5171 53.1825 44.7817 51.6832 45.0463C50.0957 45.3329 48.0451 46.0826 46.193 45.1124L46.1709 45.0904C44.4952 44.2084 43.8999 42.4004 43.3045 40.9672C42.3344 40.438 41.5186 39.6222 40.791 39.0489C39.9751 38.4095 39.2034 37.8142 38.2553 37.5275C37.8584 37.3952 37.4615 37.3291 36.9985 37.3291C35.3007 37.3291 33.8675 38.1008 32.9415 39.3797C32.8312 39.5561 32.721 39.7545 32.6107 39.9309C32.4343 40.2616 32.28 40.5703 32.1477 40.9011C31.9052 41.5846 31.7949 42.3342 31.7949 43.1501C31.7949 45.9282 32.7651 48.3096 34.6613 50.2058C35.8299 51.3744 37.3513 52.4327 39.0711 53.2044C40.8351 53.9982 42.8195 54.4833 44.848 54.4833H45.8843C49.8531 54.4833 53.6676 52.6091 56.0489 50.2058C56.975 49.2797 57.6585 48.2434 58.1436 47.1189C57.6365 46.3692 56.9529 45.7298 56.093 45.2888Z" fill="#CE0E2D"/>
<path d="M56.8428 35.2124C56.8428 32.8311 57.5483 30.7144 58.9595 29.0607C60.6573 27.0322 63.237 25.7974 66.2798 25.5328C66.3018 25.9077 66.3239 26.2825 66.3239 26.6353C66.3239 29.0166 65.6183 31.1113 64.2072 32.787C62.5094 34.8155 59.9296 36.0503 56.8869 36.3148C56.8648 35.9621 56.8428 35.5872 56.8428 35.2124Z" fill="#9AC31B"/>
<path d="M55.6963 36.3369C52.6535 36.0723 50.0738 34.8375 48.376 32.809C46.9869 31.1333 46.2593 29.0386 46.2593 26.6573C46.2593 26.3045 46.2813 25.9297 46.3034 25.5549C49.3462 25.8195 51.9259 27.0542 53.6237 29.0827C55.0128 30.7585 55.7404 32.8531 55.7404 35.2344C55.7404 35.5872 55.7183 35.962 55.6963 36.3369Z" fill="#9AC31B"/>
<path d="M31.7949 118.315H106.784" stroke="#D1D1D1" stroke-width="2" stroke-miterlimit="10"/>
<path d="M31.7949 103.675H106.784" stroke="#D1D1D1" stroke-width="2" stroke-miterlimit="10"/>
<path d="M31.7949 89.0563H106.784" stroke="#D1D1D1" stroke-width="2" stroke-miterlimit="10"/>
<path d="M31.7949 74.4157H106.784" stroke="#D1D1D1" stroke-width="2" stroke-miterlimit="10"/>
<path d="M31.7949 59.7751H106.784" stroke="#D1D1D1" stroke-width="2" stroke-miterlimit="10"/>
<path d="M70.6235 45.1345H106.784" stroke="#D1D1D1" stroke-width="2" stroke-miterlimit="10"/>
<path d="M70.6235 30.4939H106.784" stroke="#D1D1D1" stroke-width="2" stroke-miterlimit="10"/>
<path d="M70.623 82.7061L74.1068 86.1678L84.2714 85.771L127.598 42.4665L114.324 29.215L71.0199 72.5195L70.623 82.7061Z" fill="url(#paint0_linear_1073_7391)"/>
<defs>
<linearGradient id="paint0_linear_1073_7391" x1="70.6321" y1="57.6906" x2="127.592" y2="57.6906" gradientUnits="userSpaceOnUse">
<stop stop-color="#CA614E"/>
<stop offset="1" stop-color="#AE2C2C"/>
</linearGradient>
</defs>
</svg>
