<svg width="140" height="140" viewBox="0 0 140 140" fill="none" xmlns="http://www.w3.org/2000/svg">
<path d="M110.14 69.3722C105.921 68.7549 101.928 70.8539 99.9529 74.3318L89.2311 73.0353C87.7083 59.8647 76.5132 49.6574 62.9515 49.6574C59.2061 49.6574 55.6665 50.4394 52.4356 51.8388L45.7062 32.4121C50.5217 28.749 52.6002 22.2048 50.3571 16.2369C47.6201 8.95184 39.4913 5.28875 32.2063 8.02577C24.9213 10.7628 21.2582 18.8916 23.9952 26.1766C26.2383 32.1445 32.1034 35.6842 38.1537 35.252L46.4059 55.4813C40.3556 60.338 36.4662 67.7877 36.4662 76.1428C36.4662 82.0078 38.38 87.4202 41.5904 91.8035C42.3107 92.7707 43.0721 93.6968 43.9158 94.5611L34.1407 110.16C29.7779 109.604 25.3123 111.601 22.8839 115.593C19.6118 121.005 21.3611 128.043 26.7734 131.295C32.1857 134.567 39.2238 132.818 42.4753 127.405C44.883 123.393 44.5538 118.515 42.0431 114.914L50.8716 99.7059C54.4935 101.558 58.5888 102.608 62.931 102.608C76.3692 102.608 87.4613 92.5855 89.1694 79.6207L98.8828 81.6786C99.8088 85.568 102.999 88.6755 107.197 89.2929C112.691 90.0955 117.795 86.3089 118.618 80.8143C119.441 75.2785 115.634 70.1748 110.14 69.3722Z" fill="url(#paint0_linear_1008_2695)"/>
<path d="M50.1191 90.1623C48.9667 90.1623 47.8554 89.5861 47.2175 88.5366C46.065 86.6639 45.0361 84.5237 44.0277 82.013C43.1016 79.667 42.2373 77.3415 41.9492 74.7691V74.6868C41.6817 72.1967 42.0727 69.5832 43.1222 66.6815C43.1428 66.5992 43.1839 66.5375 43.2045 66.4552C43.8631 64.7059 45.8387 63.821 47.5879 64.5001C49.3371 65.1587 50.222 67.1343 49.5429 68.8835L49.4812 69.0276C48.7815 70.9208 48.5139 72.526 48.6786 73.9665V74.0283C48.8844 75.7569 49.5429 77.5267 50.3249 79.5023C51.1892 81.6426 52.0535 83.4535 53.0002 84.997C53.9674 86.6021 53.4735 88.6806 51.8683 89.6684C51.3333 89.9977 50.7159 90.1623 50.1191 90.1623Z" fill="white"/>
<defs>
<linearGradient id="paint0_linear_1008_2695" x1="34.6659" y1="13.2169" x2="76.9647" y2="117.731" gradientUnits="userSpaceOnUse">
<stop stop-color="#D4634F"/>
<stop offset="0.395" stop-color="#C3252E"/>
<stop offset="0.502" stop-color="#C1282E"/>
<stop offset="0.6397" stop-color="#B72A2D"/>
<stop offset="0.6507" stop-color="#B82C2E"/>
<stop offset="1" stop-color="#DE6650"/>
</linearGradient>
</defs>
</svg>
