<svg width="80" height="80" viewBox="0 0 80 80" fill="none" xmlns="http://www.w3.org/2000/svg">
<path d="M65.0772 29.1989C63.5719 27.3174 40.9819 12.665 39.4061 12.665C37.8303 12.665 16.4398 27.3174 14.9346 29.1989L40.0059 47.0146L65.0772 29.1989Z" fill="#D1D1D1"/>
<path d="M60.1146 19.8735H19.8853V52.6238H60.1146V19.8735Z" fill="white"/>
<path d="M52.9179 26.7059C53.3765 26.7999 53.7645 26.5177 54.082 26.3531C54.3878 26.2002 54.6818 26.0591 55.0346 26.1296C55.3991 26.2002 55.6696 26.4236 55.8342 26.7176V26.7059C55.8342 25.8827 55.305 25.283 54.5642 25.283C54.1879 25.283 53.9174 25.4829 53.6352 25.7063C53.3412 25.9297 53.0119 26.306 52.5298 26.306H52.518C52.424 26.306 52.3299 26.2943 52.2476 26.2708C52.4357 26.4589 52.6356 26.6471 52.9179 26.7059Z" fill="#EE907B"/>
<path d="M52.7412 27.1764C53.1998 27.4233 53.6937 27.2352 54.0935 27.1646C54.4698 27.0941 54.8109 27.0353 55.1754 27.2234C55.3871 27.3292 55.5517 27.4821 55.6693 27.6703C55.7869 27.3763 55.8575 27.0588 55.8575 26.7178C55.6928 26.412 55.4223 26.2003 55.0578 26.1298C54.6933 26.0592 54.411 26.2003 54.1053 26.3532C53.7878 26.5178 53.3997 26.8001 52.9411 26.706H52.9293C52.6471 26.6472 52.4472 26.459 52.2708 26.2709C52.1885 26.2474 52.1179 26.2121 52.0474 26.1768C52.1885 26.5178 52.3296 26.9529 52.7412 27.1764Z" fill="#EA6852"/>
<path d="M55.1637 27.2233C54.8109 27.0352 54.4581 27.094 54.0818 27.1645C53.6938 27.2351 53.1999 27.4232 52.7412 27.1763H52.7295C52.3179 26.9646 52.1768 26.5177 52.0357 26.165C51.8005 26.0356 51.6006 25.8357 51.4242 25.6946C51.2243 25.5417 51.0361 25.3888 50.8009 25.3183C50.7068 25.283 50.601 25.2712 50.4952 25.2712C50.0836 25.2712 49.7308 25.4594 49.5074 25.7769C49.4838 25.8239 49.4486 25.871 49.4251 25.918C49.378 26.0003 49.3427 26.0709 49.3075 26.1532C49.2487 26.3178 49.2134 26.506 49.2134 26.7059C49.2134 27.388 49.4486 27.9642 49.9072 28.4228C50.1894 28.705 50.5657 28.9637 50.9773 29.1519C51.4124 29.34 51.8946 29.4694 52.3885 29.4576H52.6354C53.5997 29.4576 54.5287 28.999 55.1167 28.411C55.3401 28.1876 55.5165 27.9289 55.6223 27.6584C55.54 27.482 55.3754 27.3292 55.1637 27.2233Z" fill="#CE0E2D"/>
<path d="M55.3403 24.7655C55.3403 24.1893 55.5167 23.6719 55.8577 23.2603C56.2693 22.7664 56.9043 22.4607 57.6452 22.4019C57.657 22.4959 57.657 22.5782 57.657 22.6723C57.657 23.2485 57.4806 23.766 57.1395 24.1775C56.728 24.6714 56.0929 24.9772 55.3521 25.036C55.3521 24.9419 55.3403 24.8596 55.3403 24.7655Z" fill="#9AC31B"/>
<path d="M55.0695 25.036C54.3287 24.9654 53.6937 24.6714 53.2821 24.1775C52.941 23.766 52.7646 23.2603 52.7646 22.6723C52.7646 22.5782 52.7647 22.4959 52.7764 22.4019C53.5173 22.4724 54.1523 22.7664 54.5639 23.2603C54.9049 23.6719 55.0813 24.1775 55.0813 24.7655C55.0813 24.8596 55.0695 24.9419 55.0695 25.036Z" fill="#9AC31B"/>
<path d="M24.0127 24.5774H43.3806" stroke="#D1D1D1" stroke-width="1.5" stroke-miterlimit="10"/>
<path d="M24.0127 29.199H43.3806" stroke="#D1D1D1" stroke-width="1.5" stroke-miterlimit="10"/>
<path d="M24.0127 33.8086H56.8923" stroke="#D1D1D1" stroke-width="1.5" stroke-miterlimit="10"/>
<path d="M24.0127 38.4185H56.8923" stroke="#D1D1D1" stroke-width="1.5" stroke-miterlimit="10"/>
<path d="M24.0127 43.4631H56.8923" stroke="#D1D1D1" stroke-width="1.5" stroke-miterlimit="10"/>
<path d="M14.9345 29.199C13.8055 30.5984 13.1353 32.3858 13.1353 34.3261V56.1165C13.1353 58.3979 14.076 60.4675 15.5812 61.961L35.6077 43.8984L14.9345 29.199Z" fill="#E9E8E8"/>
<path d="M66.8763 56.1045V34.3142C66.8763 32.3738 66.1942 30.5982 65.077 29.187L44.4038 43.8864L64.4303 61.949C65.9355 60.4556 66.8763 58.3977 66.8763 56.1045Z" fill="#E9E8E8"/>
<path d="M40.0061 47.0145L35.608 43.8865L15.5698 61.9491C17.0515 63.4073 19.0859 64.3128 21.332 64.3128H58.6685C60.9145 64.3128 62.9489 63.4073 64.4306 61.9491L44.4042 43.8865L40.0061 47.0145Z" fill="#D1D1D1"/>
</svg>
