<svg width="65" height="65" viewBox="0 0 65 65" fill="none" xmlns="http://www.w3.org/2000/svg">
<path d="M48.4325 7.49072H11.2173V52.149H48.4325V7.49072Z" fill="white"/>
<path d="M20.9341 17.1792H20.9437C21.6794 17.332 22.31 16.8639 22.8355 16.6059C23.3323 16.3575 23.8005 16.1282 24.3833 16.2428C24.9757 16.367 25.4248 16.7205 25.6827 17.2078C25.6827 17.1983 25.6827 17.1887 25.6827 17.1887C25.6827 15.8415 24.8133 14.8669 23.6189 14.8669C22.9979 14.8669 22.5679 15.2014 22.1189 15.5549C21.6411 15.9275 21.1061 16.5294 20.3226 16.5294H20.313C20.1602 16.5294 20.0169 16.5008 19.8735 16.4626C20.1411 16.7874 20.4659 17.0836 20.9341 17.1792Z" fill="#EE907B"/>
<path d="M20.6382 17.9531L20.6477 17.9626C21.3834 18.3543 22.1956 18.0486 22.8262 17.9339C23.4281 17.8288 24.0014 17.7237 24.5842 18.0295C24.9282 18.211 25.1957 18.4594 25.3868 18.7556C25.5875 18.2875 25.683 17.7715 25.683 17.2078C25.4155 16.7205 24.9664 16.367 24.3836 16.2428C23.8008 16.1281 23.3326 16.3574 22.8357 16.6059C22.3102 16.8638 21.6892 17.332 20.9439 17.1791H20.9344C20.4758 17.0836 20.1413 16.7874 19.8738 16.4625C19.7496 16.4243 19.6254 16.3765 19.5107 16.3097C19.7401 16.8734 19.9694 17.5995 20.6382 17.9531Z" fill="#EA6852"/>
<path d="M24.584 18.0296C24.0012 17.7238 23.4279 17.8194 22.826 17.934C22.1954 18.0487 21.3832 18.3449 20.6475 17.9627L20.638 17.9531C19.9692 17.5996 19.7398 16.883 19.501 16.3097C19.1188 16.0995 18.7939 15.7842 18.4977 15.5454C18.1729 15.2969 17.8671 15.0581 17.4945 14.9339C17.3416 14.8861 17.1792 14.8574 16.9977 14.8574C16.3288 14.8574 15.7556 15.1632 15.3829 15.6696C15.3352 15.7364 15.2969 15.8129 15.2492 15.8893C15.1823 16.0135 15.125 16.1473 15.0676 16.2715C14.9721 16.539 14.9243 16.8448 14.9243 17.1696C14.9243 18.278 15.3065 19.2143 16.0613 19.9691C16.5295 20.4373 17.1314 20.8482 17.8098 21.1539C18.5168 21.4692 19.3003 21.6603 20.1029 21.6603H20.5138C22.0903 21.6603 23.5999 20.915 24.5458 19.9691C24.9089 19.6061 25.186 19.1952 25.3771 18.7366C25.1955 18.4595 24.928 18.2111 24.584 18.0296Z" fill="#CE0E2D"/>
<path d="M14.9341 47.0183H44.7062" stroke="#D1D1D1" stroke-width="2" stroke-miterlimit="10"/>
<path d="M14.9341 41.209H44.7062" stroke="#D1D1D1" stroke-width="2" stroke-miterlimit="10"/>
<path d="M14.9341 35.3999H44.7062" stroke="#D1D1D1" stroke-width="2" stroke-miterlimit="10"/>
<path d="M14.9341 29.5906H44.7062" stroke="#D1D1D1" stroke-width="2" stroke-miterlimit="10"/>
<path d="M14.9341 23.7815H44.7062" stroke="#D1D1D1" stroke-width="2" stroke-miterlimit="10"/>
<path d="M50.5724 9.6311V54.2893H13.3477" stroke="white" stroke-width="2" stroke-miterlimit="10" stroke-linecap="round" stroke-linejoin="round"/>
<path d="M53.5155 12.574V57.2418H16.3003" stroke="white" stroke-width="2" stroke-miterlimit="10" stroke-linecap="round" stroke-linejoin="round"/>
</svg>
