<svg width="80" height="80" viewBox="0 0 80 80" fill="none" xmlns="http://www.w3.org/2000/svg">
<path d="M61.1379 16.8513H26.5766L11.3716 32.0564V55.6695C11.3716 59.8088 14.723 63.1603 18.8624 63.1603H61.1261C65.2655 63.1603 68.6169 59.8088 68.6169 55.6695V29.093V24.3421C68.6287 20.2028 65.2772 16.8513 61.1379 16.8513Z" fill="white"/>
<path d="M63.4309 68.5814L55.9989 62.5488L49.1313 68.5814V53.0471H63.4309V68.5814Z" fill="#D1D1D1"/>
<path d="M40.394 26.6001H60.1265" stroke="#D1D1D1" stroke-width="2" stroke-miterlimit="10"/>
<path d="M34.5259 31.8567H60.1264" stroke="#D1D1D1" stroke-width="2" stroke-miterlimit="10"/>
<path d="M20.6733 37.1013H60.1265" stroke="#D1D1D1" stroke-width="2" stroke-miterlimit="10"/>
<path d="M20.6733 42.3579H60.1265" stroke="#D1D1D1" stroke-width="2" stroke-miterlimit="10"/>
<path d="M25.1888 30.8923C25.8473 31.0335 26.4118 30.6101 26.8704 30.3867C27.3055 30.1633 27.7288 29.9633 28.2462 30.0692C28.7637 30.175 29.1635 30.4925 29.3987 30.9159C29.3987 30.9041 29.3987 30.9041 29.3987 30.8923C29.3987 29.7046 28.6343 28.8462 27.576 28.8462C27.0233 28.8462 26.6469 29.1402 26.2471 29.4577C25.8238 29.787 25.3416 30.3279 24.6596 30.3279H24.6478C24.5067 30.3279 24.3891 30.3044 24.2598 30.2691C24.4832 30.5396 24.7772 30.81 25.1888 30.8923Z" fill="#EE907B"/>
<path d="M24.9302 31.5744C25.5888 31.9272 26.3061 31.6567 26.8705 31.5509C27.3997 31.4568 27.9054 31.3627 28.4228 31.6332C28.7285 31.7978 28.9637 32.0095 29.1284 32.28C29.3048 31.8684 29.3871 31.4098 29.3988 30.9159C29.1637 30.4808 28.7638 30.175 28.2464 30.0692C27.729 29.9633 27.3174 30.175 26.8705 30.3867C26.4119 30.6101 25.8592 31.0334 25.2007 30.8923H25.1889C24.7773 30.81 24.4951 30.5395 24.2482 30.2573C24.1306 30.222 24.0247 30.175 23.9307 30.1162C24.1306 30.6219 24.3305 31.2569 24.9302 31.5744Z" fill="#EA6852"/>
<path d="M28.4109 31.6332C27.8935 31.3627 27.3879 31.4568 26.8587 31.5509C26.2942 31.645 25.5887 31.9154 24.9301 31.5744H24.9184C24.3304 31.2687 24.1187 30.6219 23.9188 30.128C23.5778 29.9398 23.2956 29.6576 23.0368 29.4577C22.7546 29.2343 22.4724 29.0226 22.1431 28.9167C22.002 28.8697 21.8609 28.8462 21.708 28.8462C21.1083 28.8462 20.6144 29.1167 20.2851 29.5635C20.2498 29.6223 20.2028 29.6929 20.1675 29.7634C20.1087 29.881 20.0499 29.9869 20.0029 30.1045C19.9206 30.3396 19.8735 30.6101 19.8735 30.8923C19.8735 31.8684 20.2146 32.7033 20.8731 33.3736C21.2847 33.7852 21.8139 34.1497 22.4136 34.4202C23.0368 34.7024 23.7307 34.8671 24.4362 34.8671H24.8008C26.2002 34.8671 27.529 34.2085 28.3757 33.3736C28.7049 33.0561 28.9401 32.6916 29.1165 32.2917C28.9519 32.0213 28.7167 31.7978 28.4109 31.6332Z" fill="#CE0E2D"/>
<path d="M28.6816 28.1053C28.6816 27.2704 28.9286 26.5295 29.4225 25.9415C30.0222 25.2242 30.9277 24.8009 31.9978 24.7068C32.0096 24.8361 32.0213 24.9655 32.0213 25.0949C32.0213 25.9298 31.7744 26.6706 31.2805 27.2586C30.6808 27.9759 29.7753 28.3993 28.7052 28.4934C28.6816 28.364 28.6816 28.2346 28.6816 28.1053Z" fill="#9AC31B"/>
<path d="M28.2698 28.4934C27.1997 28.3993 26.2942 27.9642 25.6945 27.2586C25.2006 26.6706 24.9536 25.9298 24.9536 25.0949C24.9536 24.9655 24.9654 24.8361 24.9771 24.7068C26.0472 24.8009 26.9527 25.236 27.5525 25.9415C28.0464 26.5295 28.2933 27.2704 28.2933 28.1053C28.2933 28.2346 28.2816 28.364 28.2698 28.4934Z" fill="#9AC31B"/>
<path d="M56.2811 59.1975C60.2299 59.1975 63.4309 55.9965 63.4309 52.0477C63.4309 48.099 60.2299 44.8979 56.2811 44.8979C52.3324 44.8979 49.1313 48.099 49.1313 52.0477C49.1313 55.9965 52.3324 59.1975 56.2811 59.1975Z" fill="url(#paint0_linear_1108_3087)"/>
<path d="M24.6951 16.8513H18.8741C14.7348 16.8513 11.3833 20.2028 11.3833 24.3421V29.0812V30.1631V32.0446L26.5766 16.8513H24.6951Z" fill="#D1D1D1"/>
<defs>
<linearGradient id="paint0_linear_1108_3087" x1="49.133" y1="52.049" x2="63.4321" y2="52.049" gradientUnits="userSpaceOnUse">
<stop offset="0.0862" stop-color="#C4242E"/>
<stop offset="0.5503" stop-color="#C1282E"/>
<stop offset="0.5759" stop-color="#C32C30"/>
<stop offset="0.9252" stop-color="#DE6650"/>
</linearGradient>
</defs>
</svg>
