<svg xmlns="http://www.w3.org/2000/svg" xmlns:xlink="http://www.w3.org/1999/xlink" viewBox="0 0 47.18 42.3"><defs><style>.cls-1{fill:url(#무제_그라디언트_15);}.cls-2{fill:url(#무제_그라디언트_94);}</style><linearGradient id="무제_그라디언트_15" x1="6.21" y1="0.28" x2="17.19" y2="21.15" gradientUnits="userSpaceOnUse"><stop offset="0" stop-color="#c4242e"/><stop offset="0.09" stop-color="#c72d32"/><stop offset="0.69" stop-color="#de6650"/></linearGradient><linearGradient id="무제_그라디언트_94" x1="0.11" y1="21.15" x2="47.29" y2="21.15" gradientUnits="userSpaceOnUse"><stop offset="0.09" stop-color="#c4242e"/><stop offset="0.55" stop-color="#c1282e"/><stop offset="0.58" stop-color="#c32d31"/><stop offset="0.93" stop-color="#de6650"/></linearGradient></defs><g id="레이어_2" data-name="레이어 2"><g id="Layer_1" data-name="Layer 1"><path class="cls-1" d="M10.88,14.77c7.1-1,12.71-7.48,12.71-7.48l0,0A15.54,15.54,0,0,0,14.81.33a11.59,11.59,0,0,0-10.73,3,13.23,13.23,0,0,0-4,11.33A51.15,51.15,0,0,0,10.88,14.77Z"/><path class="cls-2" d="M43.1,3.36a11.59,11.59,0,0,0-10.73-3,15.56,15.56,0,0,0-8.76,6.92l0,0S18,13.73,10.88,14.77A51.15,51.15,0,0,1,.11,14.69a13.3,13.3,0,0,0,1.06,3.84c1.15,2.6,3.27,4.65,5.23,6.65s4.26,4.2,6.32,6.26l7.39,7.38,3.48,3.48,3.48-3.48,7.38-7.38c2.06-2.06,4.26-4.14,6.33-6.26s4.07-4.05,5.23-6.65A13.44,13.44,0,0,0,43.1,3.36Z"/></g></g></svg>