<svg width="80" height="80" viewBox="0 0 80 80" fill="none" xmlns="http://www.w3.org/2000/svg">
<path d="M68.6287 24.3421C68.6287 20.2028 65.2772 16.8513 61.1379 16.8513H18.8624C14.723 16.8513 11.3716 20.2028 11.3716 24.3421V29.0812H68.6169V24.3421H68.6287Z" fill="#D1D1D1"/>
<path d="M11.3716 29.0813V55.6578C11.3716 59.7972 14.723 63.1486 18.8624 63.1486H61.1261C65.2655 63.1486 68.6169 59.7972 68.6169 55.6578V29.0813H11.3716Z" fill="white"/>
<path d="M19.8148 25.8946C21.432 25.8946 22.743 24.5836 22.743 22.9664C22.743 21.3493 21.432 20.0383 19.8148 20.0383C18.1977 20.0383 16.8867 21.3493 16.8867 22.9664C16.8867 24.5836 18.1977 25.8946 19.8148 25.8946Z" fill="url(#paint0_linear_1108_3118)"/>
<path d="M23.4131 42.1697C26.1409 42.1697 28.3521 39.9585 28.3521 37.2307C28.3521 34.503 26.1409 32.2917 23.4131 32.2917C20.6854 32.2917 18.4741 34.503 18.4741 37.2307C18.4741 39.9585 20.6854 42.1697 23.4131 42.1697Z" fill="#1C1C1B"/>
<path d="M30.7157 43.8042C30.4099 43.3927 28.1874 40.7703 27.7758 41.3818L23.413 46.1326C23.413 46.1326 19.0502 41.3818 19.0385 41.3818C18.6269 40.7703 16.4044 43.4044 16.0986 43.8042C15.2049 45.0037 14.4875 46.6265 14.758 48.3316C14.8168 48.6962 15.3342 50.9423 15.7693 50.9423C15.7811 50.9423 23.4013 50.9423 23.4013 50.9423C23.4013 50.9423 31.0214 50.9423 31.0332 50.9423C31.4683 50.9423 31.9857 48.6844 32.0445 48.3316C32.3385 46.6383 31.6094 45.0155 30.7157 43.8042Z" fill="#1C1C1B"/>
<path d="M36.8071 35.9487H52.118" stroke="#D1D1D1" stroke-width="2" stroke-miterlimit="10"/>
<path d="M36.8071 41.2876H62.0313" stroke="#D1D1D1" stroke-width="2" stroke-miterlimit="10"/>
<path d="M36.8071 46.6265H62.0313" stroke="#D1D1D1" stroke-width="2" stroke-miterlimit="10"/>
<path d="M36.8071 51.9653H62.0313" stroke="#D1D1D1" stroke-width="2" stroke-miterlimit="10"/>
<path d="M27.1529 46.885C27.4469 46.9438 27.6938 46.7557 27.9055 46.6616C28.1054 46.5675 28.2935 46.4734 28.517 46.5205C28.7522 46.5675 28.9286 46.7086 29.0344 46.8968V46.885C29.0344 46.3558 28.6934 45.9678 28.2112 45.9678C27.9643 45.9678 27.7996 46.0971 27.6115 46.2382C27.4233 46.3911 27.2117 46.6263 26.8942 46.6263C26.8354 46.6263 26.7766 46.6145 26.7178 46.6028C26.8354 46.7321 26.9647 46.8497 27.1529 46.885Z" fill="#EE907B"/>
<path d="M27.0352 47.1907C27.3292 47.3435 27.6585 47.2259 27.9054 47.1789C28.1406 47.1319 28.3758 47.0966 28.5993 47.2142C28.7404 47.2847 28.8462 47.3906 28.9168 47.4964C28.9991 47.3083 29.0344 47.1083 29.0344 46.8849C28.9285 46.685 28.7521 46.5556 28.5169 46.5086C28.2817 46.4616 28.0936 46.5556 27.9054 46.6497C27.6938 46.7556 27.4468 46.9437 27.1528 46.8732C26.9647 46.8379 26.8353 46.7203 26.7295 46.5909C26.6825 46.5792 26.6354 46.5556 26.5884 46.5321C26.6825 46.7673 26.7648 47.0495 27.0352 47.1907Z" fill="#EA6852"/>
<path d="M28.5992 47.226C28.364 47.1084 28.1406 47.1437 27.9054 47.1908C27.6584 47.2378 27.3292 47.3554 27.0352 47.2025C26.7765 47.0614 26.6824 46.7792 26.5883 46.5557C26.4354 46.4734 26.3061 46.3441 26.1885 46.25C26.0591 46.1559 25.9415 46.0501 25.7887 46.0031C25.7299 45.9795 25.6593 45.9678 25.5888 45.9678C25.3183 45.9678 25.0949 46.0854 24.9537 46.297C24.9302 46.3206 24.9185 46.3558 24.9067 46.3911C24.8832 46.4382 24.8597 46.497 24.8361 46.544C24.8009 46.6498 24.7773 46.7674 24.7773 46.8968C24.7773 47.3319 24.9302 47.7082 25.2242 48.0022C25.4124 48.1903 25.6475 48.355 25.918 48.4725C26.2002 48.6019 26.506 48.6725 26.8235 48.6725H26.9881C27.6114 48.6725 28.2111 48.3785 28.5874 48.0022C28.7285 47.8611 28.8461 47.6964 28.9167 47.52C28.8461 47.3907 28.7403 47.2966 28.5992 47.226Z" fill="#CE0E2D"/>
<path d="M28.7168 45.6386C28.7168 45.2623 28.8344 44.933 29.0461 44.6743C29.3165 44.3568 29.7164 44.1569 30.1985 44.1216C30.1985 44.1804 30.2103 44.2392 30.2103 44.298C30.2103 44.6743 30.0927 45.0035 29.881 45.2623C29.6105 45.5798 29.2107 45.7797 28.7286 45.815C28.7168 45.7562 28.7168 45.6974 28.7168 45.6386Z" fill="#9AC31B"/>
<path d="M28.5403 45.815C28.0582 45.768 27.6584 45.5798 27.3879 45.2623C27.1645 44.9918 27.0469 44.6626 27.0469 44.2863C27.0469 44.2275 27.0469 44.1687 27.0586 44.1099C27.5408 44.1569 27.9406 44.3451 28.2111 44.6626C28.4345 44.9213 28.5403 45.2505 28.5403 45.6268C28.5403 45.6974 28.5403 45.7562 28.5403 45.815Z" fill="#9AC31B"/>
<defs>
<linearGradient id="paint0_linear_1108_3118" x1="16.8827" y1="22.9687" x2="22.7364" y2="22.9687" gradientUnits="userSpaceOnUse">
<stop offset="0.0862" stop-color="#C4242E"/>
<stop offset="0.5503" stop-color="#C1282E"/>
<stop offset="0.5759" stop-color="#C32C30"/>
<stop offset="0.9252" stop-color="#DE6650"/>
</linearGradient>
</defs>
</svg>
