<svg width="140" height="140" viewBox="0 0 140 140" fill="none" xmlns="http://www.w3.org/2000/svg">
<path d="M70.0105 69.8662C85.6836 69.8662 98.3892 57.1606 98.3892 41.4875C98.3892 25.8144 85.6836 13.1089 70.0105 13.1089C54.3374 13.1089 41.6318 25.8144 41.6318 41.4875C41.6318 57.1606 54.3374 69.8662 70.0105 69.8662Z" fill="white"/>
<path d="M79.8473 71.8418L70.0928 77.2953L60.1531 71.8418C41.3643 71.8418 26.1357 87.0704 26.1357 105.859V126.87H113.885V105.88C113.865 87.091 98.6361 71.8418 79.8473 71.8418Z" fill="white"/>
<path d="M79.5796 95.3842C84.0041 94.7462 87.482 90.7333 87.482 90.7333L87.4614 90.7127C86.2472 88.7577 84.2716 86.9879 82.0079 86.4117C79.559 85.7737 77.0895 86.6586 75.3197 88.3049C73.3852 90.1159 72.5209 92.7912 72.8502 95.3636C75.5255 95.59 78.0156 95.6311 79.5796 95.3842Z" fill="url(#paint0_linear_1073_7269)"/>
<path d="M99.6441 88.2845C97.8743 86.6381 95.4048 85.7738 92.9559 86.3912C90.6922 86.9674 88.7166 88.7372 87.5024 90.6922L87.4818 90.7128C87.4818 90.7128 83.9833 94.7257 79.5794 95.3637C78.0154 95.5901 75.5047 95.5695 72.8706 95.3225C72.9735 96.1457 73.1793 96.9483 73.5291 97.7097C74.2494 99.3355 75.5665 100.611 76.7806 101.846C78.0771 103.163 79.4354 104.46 80.7113 105.736C82.2341 107.258 83.7776 108.802 85.3004 110.325C86.0207 111.045 86.741 111.765 87.4612 112.486C88.1815 111.765 88.9018 111.045 89.622 110.325C91.1449 108.802 92.6883 107.258 94.2112 105.736C95.4871 104.46 96.8659 103.163 98.1418 101.846C99.356 100.591 100.673 99.3149 101.393 97.7097C102.875 94.5611 102.196 90.6716 99.6441 88.2845Z" fill="url(#paint1_linear_1073_7269)"/>
<defs>
<linearGradient id="paint0_linear_1073_7269" x1="76.6771" y1="86.3724" x2="83.5196" y2="99.3704" gradientUnits="userSpaceOnUse">
<stop stop-color="#C4242E"/>
<stop offset="0.0768" stop-color="#C72C31"/>
<stop offset="0.691" stop-color="#DE6650"/>
</linearGradient>
<linearGradient id="paint1_linear_1073_7269" x1="72.8768" y1="99.3705" x2="102.261" y2="99.3705" gradientUnits="userSpaceOnUse">
<stop offset="0.0862" stop-color="#C4242E"/>
<stop offset="0.5503" stop-color="#C1282E"/>
<stop offset="0.5759" stop-color="#C32C30"/>
<stop offset="0.9252" stop-color="#DE6650"/>
</linearGradient>
</defs>
</svg>
