<svg width="45" height="45" viewBox="0 0 45 45" fill="none" xmlns="http://www.w3.org/2000/svg">
<path d="M22.5032 26.2207C26.2404 26.2207 29.2701 23.1911 29.2701 19.4539C29.2701 15.7166 26.2404 12.687 22.5032 12.687C18.766 12.687 15.7363 15.7166 15.7363 19.4539C15.7363 23.1911 18.766 26.2207 22.5032 26.2207Z" fill="white"/>
<path d="M24.8515 26.6904L22.5231 27.9869L20.1551 26.6904C15.6769 26.6904 12.0454 30.3219 12.0454 34.8001V39.8074H32.9612V34.8001C32.9612 30.3219 29.3297 26.6904 24.8515 26.6904Z" fill="white"/>
<path d="M27.0146 11.7743C26.9485 11.7743 26.8823 11.7611 26.8228 11.7346C26.5714 11.6288 26.4524 11.3377 26.5582 11.0864L27.3189 9.3004C27.3718 9.18133 27.471 9.08211 27.5901 9.03581C27.7091 8.9895 27.8481 8.9895 27.9671 9.04242C28.6683 9.34008 29.4819 9.01596 29.7796 8.3148C30.0772 7.61364 29.7531 6.80003 29.0519 6.50236C28.5228 6.27746 27.9274 6.39653 27.5239 6.80664C27.3321 6.99847 27.0146 7.00508 26.8228 6.81326C26.6243 6.62143 26.6243 6.31054 26.8162 6.1121C27.5041 5.41093 28.536 5.20588 29.4422 5.58953C30.6461 6.10548 31.2083 7.50119 30.6924 8.70507C30.2426 9.7502 29.1247 10.3124 28.0531 10.1008L27.4644 11.4766C27.3916 11.6619 27.2064 11.7743 27.0146 11.7743Z" fill="url(#paint0_linear_1119_3248)"/>
<path d="M26.525 12.8658C26.8063 12.8658 27.0343 12.6378 27.0343 12.3565C27.0343 12.0752 26.8063 11.8472 26.525 11.8472C26.2437 11.8472 26.0156 12.0752 26.0156 12.3565C26.0156 12.6378 26.2437 12.8658 26.525 12.8658Z" fill="url(#paint1_linear_1119_3248)"/>
<path d="M18.8254 11.6882C18.6335 11.6882 18.4483 11.5758 18.369 11.3839L17.6083 9.59796C17.5553 9.4789 17.5553 9.33999 17.6016 9.22092C17.6479 9.10186 17.7472 9.00264 17.8662 8.94972C18.2036 8.8042 18.4682 8.53961 18.6071 8.19564C18.746 7.85168 18.7394 7.48125 18.5939 7.13728C18.2962 6.43612 17.4826 6.112 16.7814 6.40966C16.2522 6.63457 15.9281 7.15051 15.9413 7.71938C15.948 7.99058 15.7363 8.2221 15.4585 8.22871C15.4519 8.22871 15.4452 8.22871 15.4452 8.22871C15.1807 8.22871 14.9558 8.01704 14.9491 7.74584C14.9227 6.76025 15.4849 5.88049 16.3911 5.49022C17.5884 4.97427 18.9907 5.53652 19.5067 6.7404C19.758 7.3225 19.7647 7.97074 19.5265 8.55945C19.3545 8.98941 19.0635 9.35322 18.6931 9.61781L19.2818 10.9937C19.3876 11.245 19.2752 11.5361 19.0172 11.6419C18.951 11.675 18.8849 11.6882 18.8254 11.6882Z" fill="url(#paint2_linear_1119_3248)"/>
<path d="M19.2686 12.806C19.5499 12.806 19.7779 12.578 19.7779 12.2967C19.7779 12.0154 19.5499 11.7874 19.2686 11.7874C18.9873 11.7874 18.7593 12.0154 18.7593 12.2967C18.7593 12.578 18.9873 12.806 19.2686 12.806Z" fill="url(#paint3_linear_1119_3248)"/>
<path d="M22.8141 10.3191C22.5429 10.3191 22.318 10.0942 22.318 9.82298V7.88486C22.318 7.61366 22.5429 7.38876 22.8141 7.38876C23.5748 7.38876 24.1966 6.76697 24.1966 6.00628C24.1966 5.24559 23.5748 4.6238 22.8141 4.6238C22.2386 4.6238 21.7359 4.96777 21.5242 5.50356C21.425 5.76153 21.1406 5.88721 20.8826 5.78138C20.6312 5.68216 20.5056 5.39772 20.6048 5.13975C20.962 4.2203 21.8285 3.63159 22.8141 3.63159C24.1238 3.63159 25.1888 4.69656 25.1888 6.00628C25.1888 7.14401 24.3818 8.09653 23.3102 8.32805V9.82298C23.3102 10.0942 23.0919 10.3191 22.8141 10.3191Z" fill="url(#paint4_linear_1119_3248)"/>
<path d="M22.7877 11.5165C23.069 11.5165 23.297 11.2884 23.297 11.0071C23.297 10.7258 23.069 10.4978 22.7877 10.4978C22.5064 10.4978 22.2783 10.7258 22.2783 11.0071C22.2783 11.2884 22.5064 11.5165 22.7877 11.5165Z" fill="url(#paint5_linear_1119_3248)"/>
<defs>
<linearGradient id="paint0_linear_1119_3248" x1="26.0672" y1="7.77905" x2="30.3157" y2="9.59149" gradientUnits="userSpaceOnUse">
<stop offset="0.0862" stop-color="#C4242E"/>
<stop offset="0.5503" stop-color="#C1282E"/>
<stop offset="0.5759" stop-color="#C32C30"/>
<stop offset="0.9252" stop-color="#DE6650"/>
</linearGradient>
<linearGradient id="paint1_linear_1119_3248" x1="26.0554" y1="12.1614" x2="26.9945" y2="12.562" gradientUnits="userSpaceOnUse">
<stop offset="0.0862" stop-color="#C4242E"/>
<stop offset="0.5503" stop-color="#C1282E"/>
<stop offset="0.5759" stop-color="#C32C30"/>
<stop offset="0.9252" stop-color="#DE6650"/>
</linearGradient>
<linearGradient id="paint2_linear_1119_3248" x1="15.6439" y1="9.4553" x2="19.8917" y2="7.64314" gradientUnits="userSpaceOnUse">
<stop offset="0.0862" stop-color="#C4242E"/>
<stop offset="0.5503" stop-color="#C1282E"/>
<stop offset="0.5759" stop-color="#C32C30"/>
<stop offset="0.9252" stop-color="#DE6650"/>
</linearGradient>
<linearGradient id="paint3_linear_1119_3248" x1="18.7994" y1="12.4963" x2="19.7385" y2="12.0957" gradientUnits="userSpaceOnUse">
<stop offset="0.0862" stop-color="#C4242E"/>
<stop offset="0.5503" stop-color="#C1282E"/>
<stop offset="0.5759" stop-color="#C32C30"/>
<stop offset="0.9252" stop-color="#DE6650"/>
</linearGradient>
<linearGradient id="paint4_linear_1119_3248" x1="20.5699" y1="6.97521" x2="25.1887" y2="6.97521" gradientUnits="userSpaceOnUse">
<stop offset="0.0862" stop-color="#C4242E"/>
<stop offset="0.5503" stop-color="#C1282E"/>
<stop offset="0.5759" stop-color="#C32C30"/>
<stop offset="0.9252" stop-color="#DE6650"/>
</linearGradient>
<linearGradient id="paint5_linear_1119_3248" x1="22.279" y1="11.0103" x2="23.2999" y2="11.0103" gradientUnits="userSpaceOnUse">
<stop offset="0.0862" stop-color="#C4242E"/>
<stop offset="0.5503" stop-color="#C1282E"/>
<stop offset="0.5759" stop-color="#C32C30"/>
<stop offset="0.9252" stop-color="#DE6650"/>
</linearGradient>
</defs>
</svg>
