<svg width="45" height="45" viewBox="0 0 45 45" fill="none" xmlns="http://www.w3.org/2000/svg">
<path d="M13.5404 33.2389L12.998 33.3514C12.1712 33.5234 11.3576 32.9942 11.1856 32.1674L9.89571 26.0157C9.72372 25.1888 10.2529 24.3752 11.0797 24.2032L11.6222 24.0908C12.449 23.9188 13.2626 24.448 13.4346 25.2748L14.7245 31.4265C14.8964 32.2534 14.3673 33.067 13.5404 33.2389Z" fill="white"/>
<path d="M32.8754 25.427C34.4901 25.427 35.7991 24.118 35.7991 22.5033C35.7991 20.8886 34.4901 19.5796 32.8754 19.5796C31.2607 19.5796 29.9517 20.8886 29.9517 22.5033C29.9517 24.118 31.2607 25.427 32.8754 25.427Z" fill="url(#paint0_linear_1119_3272)"/>
<path d="M16.2791 17.9192H16.2725V27.0674H16.2791V17.9192Z" fill="#D1D1D1"/>
<path d="M29.105 12.2834L16.2725 17.9192V27.0674L29.105 32.7097V12.2834Z" fill="url(#paint1_linear_1119_3272)"/>
<path d="M31.3672 34.7273H30.6131C29.7797 34.7273 29.105 34.0526 29.105 33.2192V11.7875C29.105 10.954 29.7797 10.2793 30.6131 10.2793H31.3672C32.2007 10.2793 32.8754 10.954 32.8754 11.7875V33.2192C32.8754 34.046 32.2007 34.7273 31.3672 34.7273Z" fill="white"/>
<path d="M10.4514 17.9126C9.76342 17.9126 9.20117 18.4682 9.20117 19.1628V25.837C9.20117 26.525 9.75681 27.0872 10.4514 27.0872H16.2789V17.9126H10.4514Z" fill="#D1D1D1"/>
<defs>
<linearGradient id="paint0_linear_1119_3272" x1="29.9552" y1="22.5005" x2="35.8008" y2="22.5005" gradientUnits="userSpaceOnUse">
<stop offset="0.0862" stop-color="#C4242E"/>
<stop offset="0.5503" stop-color="#C1282E"/>
<stop offset="0.5759" stop-color="#C32C30"/>
<stop offset="0.9252" stop-color="#DE6650"/>
</linearGradient>
<linearGradient id="paint1_linear_1119_3272" x1="16.2746" y1="22.4947" x2="29.1053" y2="22.4947" gradientUnits="userSpaceOnUse">
<stop offset="0.0862" stop-color="#C4242E"/>
<stop offset="0.5503" stop-color="#C1282E"/>
<stop offset="0.5759" stop-color="#C32C30"/>
<stop offset="0.9252" stop-color="#DE6650"/>
</linearGradient>
</defs>
</svg>
