<svg width="69" height="69" viewBox="0 0 69 69" fill="none" xmlns="http://www.w3.org/2000/svg">
<g clip-path="url(#clip0_1078_2425)">
<path d="M43.4403 17.75H24.5903H19.5703V22.73V59.8H28.6203V45.29H39.4103V59.8H48.4603V22.73V17.75H43.4403Z" fill="#E9E8E8"/>
<path d="M43.4403 13.17L34.0203 8.22998L24.5903 13.17V17.75H43.4403V13.17Z" fill="#D1D1D1"/>
<path d="M59.18 55.21H52.79V24.91L48.46 22.73V59.8H59.18V55.21Z" fill="url(#paint0_linear_1078_2425)"/>
<path d="M15.2401 24.91V55.21H8.8501V59.8H19.5701V22.73L15.2401 24.91Z" fill="url(#paint1_linear_1078_2425)"/>
<path d="M39.4101 45.29H28.6201V59.81H39.4101V45.29Z" fill="#D1D1D1"/>
<path d="M26.5302 20.9199H23.7002V28.0099H26.5302V20.9199Z" fill="url(#paint2_linear_1078_2425)"/>
<path d="M32.4604 20.9199H29.6304V28.0099H32.4604V20.9199Z" fill="url(#paint3_linear_1078_2425)"/>
<path d="M38.4003 20.9199H35.5703V28.0099H38.4003V20.9199Z" fill="url(#paint4_linear_1078_2425)"/>
<path d="M44.33 20.9199H41.5V28.0099H44.33V20.9199Z" fill="url(#paint5_linear_1078_2425)"/>
<path d="M26.5302 32.3699H23.7002V39.4599H26.5302V32.3699Z" fill="url(#paint6_linear_1078_2425)"/>
<path d="M32.4604 32.3699H29.6304V39.4599H32.4604V32.3699Z" fill="url(#paint7_linear_1078_2425)"/>
<path d="M38.4003 32.3699H35.5703V39.4599H38.4003V32.3699Z" fill="url(#paint8_linear_1078_2425)"/>
<path d="M44.33 32.3699H41.5V39.4599H44.33V32.3699Z" fill="url(#paint9_linear_1078_2425)"/>
</g>
<defs>
<linearGradient id="paint0_linear_1078_2425" x1="48.4589" y1="41.2675" x2="59.1771" y2="41.2675" gradientUnits="userSpaceOnUse">
<stop offset="0.0862" stop-color="#C4242E"/>
<stop offset="0.5503" stop-color="#C1282E"/>
<stop offset="0.5759" stop-color="#C32C30"/>
<stop offset="0.9252" stop-color="#DE6650"/>
</linearGradient>
<linearGradient id="paint1_linear_1078_2425" x1="8.8545" y1="41.2675" x2="19.5727" y2="41.2675" gradientUnits="userSpaceOnUse">
<stop offset="0.0862" stop-color="#C4242E"/>
<stop offset="0.5503" stop-color="#C1282E"/>
<stop offset="0.5759" stop-color="#C32C30"/>
<stop offset="0.9252" stop-color="#DE6650"/>
</linearGradient>
<linearGradient id="paint2_linear_1078_2425" x1="23.6954" y1="24.4676" x2="26.53" y2="24.4676" gradientUnits="userSpaceOnUse">
<stop offset="0.0862" stop-color="#C4242E"/>
<stop offset="0.5503" stop-color="#C1282E"/>
<stop offset="0.5759" stop-color="#C32C30"/>
<stop offset="0.9252" stop-color="#DE6650"/>
</linearGradient>
<linearGradient id="paint3_linear_1078_2425" x1="29.6311" y1="24.4676" x2="32.4657" y2="24.4676" gradientUnits="userSpaceOnUse">
<stop offset="0.0862" stop-color="#C4242E"/>
<stop offset="0.5503" stop-color="#C1282E"/>
<stop offset="0.5759" stop-color="#C32C30"/>
<stop offset="0.9252" stop-color="#DE6650"/>
</linearGradient>
<linearGradient id="paint4_linear_1078_2425" x1="35.5665" y1="24.4676" x2="38.4011" y2="24.4676" gradientUnits="userSpaceOnUse">
<stop offset="0.0862" stop-color="#C4242E"/>
<stop offset="0.5503" stop-color="#C1282E"/>
<stop offset="0.5759" stop-color="#C32C30"/>
<stop offset="0.9252" stop-color="#DE6650"/>
</linearGradient>
<linearGradient id="paint5_linear_1078_2425" x1="41.5017" y1="24.4676" x2="44.3363" y2="24.4676" gradientUnits="userSpaceOnUse">
<stop offset="0.0862" stop-color="#C4242E"/>
<stop offset="0.5503" stop-color="#C1282E"/>
<stop offset="0.5759" stop-color="#C32C30"/>
<stop offset="0.9252" stop-color="#DE6650"/>
</linearGradient>
<linearGradient id="paint6_linear_1078_2425" x1="23.6954" y1="35.9146" x2="26.53" y2="35.9146" gradientUnits="userSpaceOnUse">
<stop offset="0.0862" stop-color="#C4242E"/>
<stop offset="0.5503" stop-color="#C1282E"/>
<stop offset="0.5759" stop-color="#C32C30"/>
<stop offset="0.9252" stop-color="#DE6650"/>
</linearGradient>
<linearGradient id="paint7_linear_1078_2425" x1="29.6311" y1="35.9146" x2="32.4657" y2="35.9146" gradientUnits="userSpaceOnUse">
<stop offset="0.0862" stop-color="#C4242E"/>
<stop offset="0.5503" stop-color="#C1282E"/>
<stop offset="0.5759" stop-color="#C32C30"/>
<stop offset="0.9252" stop-color="#DE6650"/>
</linearGradient>
<linearGradient id="paint8_linear_1078_2425" x1="35.5665" y1="35.9146" x2="38.4011" y2="35.9146" gradientUnits="userSpaceOnUse">
<stop offset="0.0862" stop-color="#C4242E"/>
<stop offset="0.5503" stop-color="#C1282E"/>
<stop offset="0.5759" stop-color="#C32C30"/>
<stop offset="0.9252" stop-color="#DE6650"/>
</linearGradient>
<linearGradient id="paint9_linear_1078_2425" x1="41.5017" y1="35.9146" x2="44.3363" y2="35.9146" gradientUnits="userSpaceOnUse">
<stop offset="0.0862" stop-color="#C4242E"/>
<stop offset="0.5503" stop-color="#C1282E"/>
<stop offset="0.5759" stop-color="#C32C30"/>
<stop offset="0.9252" stop-color="#DE6650"/>
</linearGradient>
<clipPath id="clip0_1078_2425">
<rect width="68.03" height="68.03" fill="white"/>
</clipPath>
</defs>
</svg>
