<svg width="140" height="140" viewBox="0 0 140 140" fill="none" xmlns="http://www.w3.org/2000/svg">
<path d="M77.7478 50.8717C86.9673 49.534 94.2729 41.1583 94.2729 41.1583C94.2523 41.1377 94.2523 41.1172 94.2317 41.0966C91.6799 37.0219 87.5641 33.3177 82.8514 32.1035C77.7478 30.7864 72.5825 32.5974 68.8988 36.0341C64.8447 39.8001 63.0749 45.3976 63.7334 50.7688C69.2486 51.3038 74.4757 51.3656 77.7478 50.8717Z" fill="url(#paint0_linear_1073_7276)"/>
<path d="M97.3396 76.8015C96.4136 77.3366 95.5081 77.8716 94.582 78.4273C95.7962 77.9951 96.6811 77.4189 97.3396 76.8015Z" fill="url(#paint1_linear_1073_7276)"/>
<path d="M123.434 55.7695C126.397 49.1224 124.977 41.0143 119.647 36.0341C115.964 32.5974 110.798 30.7864 105.695 32.1035C100.982 33.3177 96.8663 37.0219 94.3145 41.0966C94.2939 41.1171 94.2939 41.1377 94.2734 41.1583C94.2734 41.1583 86.9883 49.534 77.7483 50.8717C74.4762 51.345 69.2491 51.3038 63.7339 50.7688C63.9397 52.4768 64.3924 54.1643 65.1127 55.7695C66.615 59.1445 69.3726 61.8198 71.9244 64.4128C72.5829 65.0713 73.262 65.7298 73.9206 66.4089C74.7026 66.4089 75.5052 66.4089 76.2872 66.4089C79.23 66.4089 82.1522 66.4089 85.095 66.4089C87.0912 66.4089 89.108 66.4089 91.1042 66.4089C92.9974 66.4089 94.8702 66.4089 96.5165 67.4996C97.9159 68.4257 98.7802 69.8868 99.1506 71.5126C99.1506 71.5126 99.8297 74.5171 97.3602 76.8014C98.0599 76.3898 98.7596 75.9782 99.4593 75.5667C102.711 73.6528 105.942 71.7595 109.193 69.8456C110.819 68.8784 112.465 67.9318 114.091 66.9646C114.955 66.1208 115.82 65.2771 116.663 64.4128C119.174 61.8198 121.911 59.1651 123.434 55.7695Z" fill="url(#paint2_linear_1073_7276)"/>
<path d="M75.2578 78.4272H94.5816L95.6106 77.8921" stroke="#1C1C1B" stroke-width="2" stroke-miterlimit="10"/>
<path d="M4.0542 84.395L26.7942 66.4088C27.5556 66.4088 28.3376 66.4088 29.099 66.4088C31.157 66.4088 33.2149 66.4088 35.2522 66.4088C38.2156 66.4088 41.1996 66.4088 44.163 66.4088C47.682 66.4088 51.2011 66.4088 54.6995 66.4088C58.3832 66.4088 62.0874 66.4088 65.7711 66.4088C69.2696 66.4088 72.768 66.4088 76.2665 66.4088C79.2093 66.4088 82.1315 66.4088 85.0743 66.4088C87.0705 66.4088 89.0873 66.4088 91.0835 66.4088C92.9767 66.4088 94.8494 66.4088 96.4958 67.4995C97.8952 68.4256 98.7595 69.8867 99.1299 71.5125C99.1299 71.5125 100.241 76.3691 94.5819 78.4271C96.2077 77.4804 97.8128 76.5338 99.4386 75.5666C102.69 73.6527 105.921 71.7594 109.173 69.8455C111.766 68.3227 114.379 66.7998 116.972 65.2564C119.359 63.8364 121.746 62.3959 124.134 60.9759C126.15 59.7618 128.27 58.1977 130.74 58.4653C132.406 58.6505 133.847 59.5148 134.773 60.8936C135.823 62.4576 136.316 64.2069 135.617 66.0384C134.732 68.3639 132.571 69.8044 130.678 71.2861C129.32 72.3356 127.982 73.3852 126.624 74.4347C123.578 76.8013 120.553 79.1679 117.507 81.5345C116.807 82.0696 116.128 82.6046 115.429 83.1397L99.6855 95.4049C95.9401 98.3271 92.2359 101.291 88.4905 104.192C86.8236 105.489 85.1772 106.909 83.1605 107.608C81.0614 108.349 78.736 108.37 76.534 108.246C73.4265 108.061 70.566 107.073 67.7467 105.818C67.7261 105.797 67.685 105.797 67.6644 105.777C65.0508 104.624 62.4373 103.451 59.8237 102.299C56.5105 100.838 53.2178 99.3561 49.9046 97.8949C46.9617 96.5779 43.9984 95.2608 41.0555 93.9643C39.5533 93.3058 38.051 92.6267 36.5487 91.9681C35.5197 91.5154 34.0792 91.7829 33.0091 92.0505C31.0952 92.5238 29.346 93.5116 27.8437 94.8081L17.7599 103.019" fill="white"/>
<path d="M94.7053 78.4065H71.2656" stroke="#E9E8E8" stroke-width="0.1" stroke-miterlimit="10"/>
<defs>
<linearGradient id="paint0_linear_1073_7276" x1="71.6751" y1="32.0459" x2="85.9616" y2="59.1836" gradientUnits="userSpaceOnUse">
<stop stop-color="#C4242E"/>
<stop offset="0.0768" stop-color="#C72C31"/>
<stop offset="0.691" stop-color="#DE6650"/>
</linearGradient>
<linearGradient id="paint1_linear_1073_7276" x1="63.7417" y1="77.6164" x2="125.091" y2="77.6164" gradientUnits="userSpaceOnUse">
<stop offset="0.0862" stop-color="#C4242E"/>
<stop offset="0.5503" stop-color="#C1282E"/>
<stop offset="0.5759" stop-color="#C32C30"/>
<stop offset="0.9252" stop-color="#DE6650"/>
</linearGradient>
<linearGradient id="paint2_linear_1073_7276" x1="63.7417" y1="54.2442" x2="125.091" y2="54.2442" gradientUnits="userSpaceOnUse">
<stop offset="0.0862" stop-color="#C4242E"/>
<stop offset="0.5503" stop-color="#C1282E"/>
<stop offset="0.5759" stop-color="#C32C30"/>
<stop offset="0.9252" stop-color="#DE6650"/>
</linearGradient>
</defs>
</svg>
