<svg width="250" height="300" viewBox="0 0 250 300" fill="none" xmlns="http://www.w3.org/2000/svg">
<path d="M124.955 192.948L0 242.579L124.955 292.21L249.978 242.579L124.955 192.948Z" fill="#87A7B9"/>
<path d="M249.977 242.579L124.955 192.948V0L249.977 57.4211V242.579Z" fill="#2C5CA2"/>
<path d="M0 242.579L124.955 192.948V0L0 57.4211V242.579Z" fill="#F3F0E5"/>
<path d="M124.955 300V107.052L249.977 57.4883V242.579L124.955 300ZM209.799 240.967L236.585 228.811V82.673L209.799 93.4856V147.213L165.134 166.017V111.619L138.348 122.431V273.271L165.134 261.182V206.716L209.799 187.307V240.967Z" fill="#F4F1E6"/>
<path d="M0 57.4883V242.579L124.955 300V107.052L0 57.4883ZM111.563 151.511V273.271L13.3929 228.811V188.986L84.7768 220.349V142.377L57.9911 131.565V100.739L84.7768 111.619L111.563 122.431V151.511Z" fill="#2D61AD"/>
</svg>
