<svg width="550" height="442" viewBox="0 0 550 442" fill="none" xmlns="http://www.w3.org/2000/svg">
<g clip-path="url(#clip0_1215_2411)">
<path d="M366.634 284.126L183.366 357.209L366.634 430.293L550 357.209L366.634 284.126Z" fill="#87A7B9"/>
<path d="M550 357.209L366.634 284.126V0L550 84.5553V357.209Z" fill="#2C5CA2"/>
<path d="M183.366 357.209L366.634 284.126V0L183.366 84.5553V357.209Z" fill="#F3F0E5"/>
<path d="M183.366 84.6542V357.209L0 441.764V157.639L183.366 84.6542ZM163.723 199.966L58.9286 244.37V224.591L163.723 180.78V121.74L19.6429 180.187V321.607L124.438 275.818V295.597L19.6429 341.781V402.404L163.723 336.936V199.966Z" fill="#87A7B9"/>
<path d="M366.634 441.764V157.639L550 84.6542V357.209L366.634 441.764ZM491.071 354.836L530.357 336.936V121.74L491.071 137.662V216.778L425.562 244.469V164.364L386.277 180.286V402.404L425.562 384.603V304.399L491.071 275.818V354.836Z" fill="#F4F1E6"/>
<path d="M183.366 84.6542V357.209L366.634 441.764V157.639L183.366 84.6542ZM346.991 223.107V402.404L203.009 336.936V278.291L307.706 324.475V209.658L268.42 193.735V148.343L307.706 164.364L346.991 180.286V223.107Z" fill="#2D61AD"/>
</g>
<defs>
<clipPath id="clip0_1215_2411">
<rect width="550" height="441.764" fill="white"/>
</clipPath>
</defs>
</svg>
